G04 PROTEUS GERBER X2 FILE*
%TF.GenerationSoftware,Labcenter,Proteus,8.6-SP2-Build23525*%
%TF.CreationDate,2018-04-04T03:23:59+00:00*%
%TF.FileFunction,AssemblyDrawing,Top*%
%TF.FilePolarity,Positive*%
%TF.Part,Single*%
%FSLAX45Y45*%
%MOMM*%
G01*
%TA.AperFunction,Material*%
%ADD73C,0.203200*%
%ADD55C,0.345440*%
%ADD56C,0.091440*%
%ADD57C,0.240790*%
%ADD58C,0.336190*%
%ADD59C,0.050000*%
%ADD60C,0.138750*%
%TA.AperFunction,Profile*%
%ADD17C,0.203200*%
%TA.AperFunction,Material*%
%ADD61C,0.235370*%
%ADD62C,0.106680*%
%ADD63C,0.228330*%
%ADD64C,0.164590*%
%ADD65C,0.285000*%
%ADD66C,0.197270*%
%TD.AperFunction*%
D73*
X-18160Y-1022160D02*
X+1018160Y-1022160D01*
X+1018160Y+14160D01*
X-18160Y+14160D01*
X-18160Y-1022160D01*
D55*
X+534544Y-780352D02*
X+569088Y-780352D01*
X+603632Y-745808D01*
X+603632Y-607632D01*
X+569088Y-573088D01*
X+396368Y-573088D01*
X+465456Y-434912D02*
X+396368Y-365824D01*
X+603632Y-365824D01*
D73*
X+3862840Y-2137160D02*
X+4137160Y-2137160D01*
X+4137160Y-1862840D01*
X+3862840Y-1862840D01*
X+3862840Y-2137160D01*
D56*
X+3926848Y-2009144D02*
X+3926848Y-2018288D01*
X+3935992Y-2027432D01*
X+3972568Y-2027432D01*
X+3981712Y-2018288D01*
X+3981712Y-1972568D01*
X+4009144Y-1981712D02*
X+4018288Y-1972568D01*
X+4045720Y-1972568D01*
X+4054864Y-1981712D01*
X+4054864Y-1990856D01*
X+4045720Y-2000000D01*
X+4054864Y-2009144D01*
X+4054864Y-2018288D01*
X+4045720Y-2027432D01*
X+4018288Y-2027432D01*
X+4009144Y-2018288D01*
X+4027432Y-2000000D02*
X+4045720Y-2000000D01*
D73*
X+3862840Y+862840D02*
X+4137160Y+862840D01*
X+4137160Y+1137160D01*
X+3862840Y+1137160D01*
X+3862840Y+862840D01*
D56*
X+3926848Y+990856D02*
X+3926848Y+981712D01*
X+3935992Y+972568D01*
X+3972568Y+972568D01*
X+3981712Y+981712D01*
X+3981712Y+1027432D01*
X+4009144Y+1018288D02*
X+4018288Y+1027432D01*
X+4045720Y+1027432D01*
X+4054864Y+1018288D01*
X+4054864Y+1009144D01*
X+4045720Y+1000000D01*
X+4018288Y+1000000D01*
X+4009144Y+990856D01*
X+4009144Y+972568D01*
X+4054864Y+972568D01*
D73*
X+7726421Y+1079605D02*
X+8279605Y+526421D01*
X+8563381Y+810197D01*
X+8010197Y+1363381D01*
X+7726421Y+1079605D01*
D57*
X+8264087Y+791663D02*
X+8195981Y+791663D01*
X+8161928Y+825716D01*
X+8161928Y+893821D01*
X+8195982Y+927875D01*
X+8264087Y+927875D01*
X+8298140Y+893822D01*
X+8298140Y+825716D01*
X+8264087Y+791663D01*
X+8230035Y+893822D02*
X+8230035Y+961928D01*
X+8093822Y+927875D02*
X+8059769Y+927875D01*
X+8008690Y+978954D01*
X+8008690Y+1013007D01*
X+8025716Y+1030033D01*
X+8059769Y+1030033D01*
X+8059770Y+1064087D01*
X+8076796Y+1081113D01*
X+8110849Y+1081113D01*
X+8161928Y+1030034D01*
X+8161928Y+995981D01*
X+8093822Y+995980D02*
X+8059769Y+1030033D01*
D73*
X+6969840Y-1590500D02*
X+7530160Y-1590500D01*
X+7530160Y+540500D01*
X+6969840Y+540500D01*
X+6969840Y-1590500D01*
D58*
X+7350858Y-793953D02*
X+7149143Y-793953D01*
X+7149143Y-659477D01*
X+7216381Y-592239D01*
X+7283620Y-592239D01*
X+7350858Y-659477D01*
X+7350858Y-793953D01*
X+7182762Y-491381D02*
X+7149143Y-457762D01*
X+7149143Y-356905D01*
X+7182762Y-323286D01*
X+7216381Y-323286D01*
X+7250000Y-356905D01*
X+7250000Y-457762D01*
X+7283620Y-491381D01*
X+7350858Y-491381D01*
X+7350858Y-323286D01*
D59*
X+8053000Y-127000D02*
X+8052914Y-124924D01*
X+8052212Y-120771D01*
X+8050742Y-116618D01*
X+8048340Y-112465D01*
X+8044667Y-108366D01*
X+8040514Y-105357D01*
X+8036361Y-103440D01*
X+8032208Y-102357D01*
X+8028055Y-102000D01*
X+8028000Y-102000D01*
X+8003000Y-127000D02*
X+8003086Y-124924D01*
X+8003788Y-120771D01*
X+8005258Y-116618D01*
X+8007660Y-112465D01*
X+8011333Y-108366D01*
X+8015486Y-105357D01*
X+8019639Y-103440D01*
X+8023792Y-102357D01*
X+8027945Y-102000D01*
X+8028000Y-102000D01*
X+8003000Y-127000D02*
X+8003086Y-129076D01*
X+8003788Y-133229D01*
X+8005258Y-137382D01*
X+8007660Y-141535D01*
X+8011333Y-145634D01*
X+8015486Y-148643D01*
X+8019639Y-150560D01*
X+8023792Y-151643D01*
X+8027945Y-152000D01*
X+8028000Y-152000D01*
X+8053000Y-127000D02*
X+8052914Y-129076D01*
X+8052212Y-133229D01*
X+8050742Y-137382D01*
X+8048340Y-141535D01*
X+8044667Y-145634D01*
X+8040514Y-148643D01*
X+8036361Y-150560D01*
X+8032208Y-151643D01*
X+8028055Y-152000D01*
X+8028000Y-152000D01*
X+7993000Y-127000D02*
X+8063000Y-127000D01*
X+8028000Y-162000D02*
X+8028000Y-92000D01*
X+8303000Y-402000D02*
X+8303000Y-127000D01*
X+8297528Y-70772D01*
X+8281784Y-18773D01*
X+8256775Y+27989D01*
X+8223508Y+68508D01*
X+8182990Y+101775D01*
X+8136227Y+126784D01*
X+8084228Y+142528D01*
X+8028000Y+148000D01*
X+7971772Y+142528D01*
X+7919773Y+126784D01*
X+7873010Y+101775D01*
X+7832492Y+68508D01*
X+7799225Y+27989D01*
X+7774216Y-18773D01*
X+7758472Y-70772D01*
X+7753000Y-127000D01*
X+7758472Y-183228D01*
X+7774216Y-235227D01*
X+7799225Y-281989D01*
X+7832492Y-322508D01*
X+7873010Y-355775D01*
X+7919773Y-380784D01*
X+7971772Y-396528D01*
X+8028000Y-402000D01*
X+8303000Y-402000D01*
D60*
X+7944750Y-154750D02*
X+7930875Y-168625D01*
X+7889250Y-168625D01*
X+7861500Y-140875D01*
X+7861500Y-113125D01*
X+7889250Y-85375D01*
X+7930875Y-85375D01*
X+7944750Y-99250D01*
X+7972500Y-168625D02*
X+7972500Y-85375D01*
X+8041875Y-85375D01*
X+8055750Y-99250D01*
X+8055750Y-113125D01*
X+8041875Y-127000D01*
X+8055750Y-140875D01*
X+8055750Y-154750D01*
X+8041875Y-168625D01*
X+7972500Y-168625D01*
X+7972500Y-127000D02*
X+8041875Y-127000D01*
X+8111250Y-113125D02*
X+8139000Y-85375D01*
X+8139000Y-168625D01*
D59*
X+8053000Y-825500D02*
X+8052914Y-823424D01*
X+8052212Y-819271D01*
X+8050742Y-815118D01*
X+8048340Y-810965D01*
X+8044667Y-806866D01*
X+8040514Y-803857D01*
X+8036361Y-801940D01*
X+8032208Y-800857D01*
X+8028055Y-800500D01*
X+8028000Y-800500D01*
X+8003000Y-825500D02*
X+8003086Y-823424D01*
X+8003788Y-819271D01*
X+8005258Y-815118D01*
X+8007660Y-810965D01*
X+8011333Y-806866D01*
X+8015486Y-803857D01*
X+8019639Y-801940D01*
X+8023792Y-800857D01*
X+8027945Y-800500D01*
X+8028000Y-800500D01*
X+8003000Y-825500D02*
X+8003086Y-827576D01*
X+8003788Y-831729D01*
X+8005258Y-835882D01*
X+8007660Y-840035D01*
X+8011333Y-844134D01*
X+8015486Y-847143D01*
X+8019639Y-849060D01*
X+8023792Y-850143D01*
X+8027945Y-850500D01*
X+8028000Y-850500D01*
X+8053000Y-825500D02*
X+8052914Y-827576D01*
X+8052212Y-831729D01*
X+8050742Y-835882D01*
X+8048340Y-840035D01*
X+8044667Y-844134D01*
X+8040514Y-847143D01*
X+8036361Y-849060D01*
X+8032208Y-850143D01*
X+8028055Y-850500D01*
X+8028000Y-850500D01*
X+7993000Y-825500D02*
X+8063000Y-825500D01*
X+8028000Y-860500D02*
X+8028000Y-790500D01*
X+8303000Y-1100500D02*
X+8303000Y-825500D01*
X+8297528Y-769272D01*
X+8281784Y-717273D01*
X+8256775Y-670511D01*
X+8223508Y-629992D01*
X+8182990Y-596725D01*
X+8136227Y-571716D01*
X+8084228Y-555972D01*
X+8028000Y-550500D01*
X+7971772Y-555972D01*
X+7919773Y-571716D01*
X+7873010Y-596725D01*
X+7832492Y-629992D01*
X+7799225Y-670511D01*
X+7774216Y-717273D01*
X+7758472Y-769272D01*
X+7753000Y-825500D01*
X+7758472Y-881728D01*
X+7774216Y-933727D01*
X+7799225Y-980489D01*
X+7832492Y-1021008D01*
X+7873010Y-1054275D01*
X+7919773Y-1079284D01*
X+7971772Y-1095028D01*
X+8028000Y-1100500D01*
X+8303000Y-1100500D01*
D60*
X+7944750Y-853250D02*
X+7930875Y-867125D01*
X+7889250Y-867125D01*
X+7861500Y-839375D01*
X+7861500Y-811625D01*
X+7889250Y-783875D01*
X+7930875Y-783875D01*
X+7944750Y-797750D01*
X+7972500Y-867125D02*
X+7972500Y-783875D01*
X+8041875Y-783875D01*
X+8055750Y-797750D01*
X+8055750Y-811625D01*
X+8041875Y-825500D01*
X+8055750Y-839375D01*
X+8055750Y-853250D01*
X+8041875Y-867125D01*
X+7972500Y-867125D01*
X+7972500Y-825500D02*
X+8041875Y-825500D01*
X+8097375Y-797750D02*
X+8111250Y-783875D01*
X+8152875Y-783875D01*
X+8166750Y-797750D01*
X+8166750Y-811625D01*
X+8152875Y-825500D01*
X+8111250Y-825500D01*
X+8097375Y-839375D01*
X+8097375Y-867125D01*
X+8166750Y-867125D01*
D73*
X+8981840Y-1014160D02*
X+10018160Y-1014160D01*
X+10018160Y+22160D01*
X+8981840Y+22160D01*
X+8981840Y-1014160D01*
D55*
X+9534544Y-772352D02*
X+9569088Y-772352D01*
X+9603632Y-737808D01*
X+9603632Y-599632D01*
X+9569088Y-565088D01*
X+9396368Y-565088D01*
X+9534544Y-288736D02*
X+9534544Y-496000D01*
X+9396368Y-357824D01*
X+9603632Y-357824D01*
D17*
X-400000Y-2500000D02*
X+10400000Y-2500000D01*
X+10400000Y+4600000D01*
X-400000Y+4600000D01*
X-400000Y-2500000D01*
D73*
X+7873579Y+2374276D02*
X+7374276Y+2873579D01*
X+7018658Y+2517961D01*
X+7517961Y+2018658D01*
X+7873579Y+2374276D01*
D61*
X+7562621Y+2296328D02*
X+7496048Y+2296328D01*
X+7462761Y+2329615D01*
X+7462762Y+2396188D01*
X+7496048Y+2429474D01*
X+7562621Y+2429475D01*
X+7595908Y+2396188D01*
X+7595908Y+2329615D01*
X+7562621Y+2296328D01*
X+7529334Y+2396188D02*
X+7529335Y+2462761D01*
X+7396188Y+2462762D02*
X+7329614Y+2462762D01*
X+7429474Y+2562622D01*
D73*
X+6626421Y+2125724D02*
X+7125724Y+1626421D01*
X+7481342Y+1982039D01*
X+6982039Y+2481342D01*
X+6626421Y+2125724D01*
D61*
X+7170385Y+1904092D02*
X+7103812Y+1904092D01*
X+7070525Y+1937379D01*
X+7070526Y+2003952D01*
X+7103812Y+2037238D01*
X+7170385Y+2037239D01*
X+7203672Y+2003952D01*
X+7203672Y+1937379D01*
X+7170385Y+1904092D01*
X+7137098Y+2003952D02*
X+7137099Y+2070525D01*
X+7003951Y+2037239D02*
X+6970665Y+2037239D01*
X+6920735Y+2087169D01*
X+6920735Y+2120455D01*
X+6937379Y+2137099D01*
X+6970665Y+2137099D01*
X+7020595Y+2087169D01*
X+7053881Y+2087169D01*
X+7087168Y+2120456D01*
X+7003952Y+2203672D01*
D73*
X+5989600Y+1568960D02*
X+6167400Y+1568960D01*
X+6167400Y+2762760D01*
X+5989600Y+2762760D01*
X+5989600Y+1568960D01*
D62*
X+6110504Y+2037844D02*
X+6046496Y+2037844D01*
X+6046496Y+2091184D01*
X+6057164Y+2101852D01*
X+6067832Y+2101852D01*
X+6078500Y+2091184D01*
X+6078500Y+2037844D01*
X+6078500Y+2091184D02*
X+6089168Y+2101852D01*
X+6110504Y+2101852D01*
X+6067832Y+2144524D02*
X+6046496Y+2165860D01*
X+6110504Y+2165860D01*
X+6099836Y+2208532D02*
X+6057164Y+2208532D01*
X+6046496Y+2219200D01*
X+6046496Y+2261872D01*
X+6057164Y+2272540D01*
X+6099836Y+2272540D01*
X+6110504Y+2261872D01*
X+6110504Y+2219200D01*
X+6099836Y+2208532D01*
X+6110504Y+2208532D02*
X+6046496Y+2272540D01*
D59*
X+4152500Y+2288000D02*
X+4152414Y+2290076D01*
X+4151712Y+2294229D01*
X+4150242Y+2298382D01*
X+4147840Y+2302535D01*
X+4144167Y+2306634D01*
X+4140014Y+2309643D01*
X+4135861Y+2311560D01*
X+4131708Y+2312643D01*
X+4127555Y+2313000D01*
X+4127500Y+2313000D01*
X+4102500Y+2288000D02*
X+4102586Y+2290076D01*
X+4103288Y+2294229D01*
X+4104758Y+2298382D01*
X+4107160Y+2302535D01*
X+4110833Y+2306634D01*
X+4114986Y+2309643D01*
X+4119139Y+2311560D01*
X+4123292Y+2312643D01*
X+4127445Y+2313000D01*
X+4127500Y+2313000D01*
X+4102500Y+2288000D02*
X+4102586Y+2285924D01*
X+4103288Y+2281771D01*
X+4104758Y+2277618D01*
X+4107160Y+2273465D01*
X+4110833Y+2269366D01*
X+4114986Y+2266357D01*
X+4119139Y+2264440D01*
X+4123292Y+2263357D01*
X+4127445Y+2263000D01*
X+4127500Y+2263000D01*
X+4152500Y+2288000D02*
X+4152414Y+2285924D01*
X+4151712Y+2281771D01*
X+4150242Y+2277618D01*
X+4147840Y+2273465D01*
X+4144167Y+2269366D01*
X+4140014Y+2266357D01*
X+4135861Y+2264440D01*
X+4131708Y+2263357D01*
X+4127555Y+2263000D01*
X+4127500Y+2263000D01*
X+4127500Y+2253000D02*
X+4127500Y+2323000D01*
X+4162500Y+2288000D02*
X+4092500Y+2288000D01*
X+4467500Y+2628000D02*
X+4127500Y+2628000D01*
X+4057981Y+2621235D01*
X+3993691Y+2601770D01*
X+3935876Y+2570849D01*
X+3885781Y+2529719D01*
X+3844651Y+2479624D01*
X+3813730Y+2421809D01*
X+3794265Y+2357519D01*
X+3787500Y+2288000D01*
X+3794265Y+2218481D01*
X+3813730Y+2154191D01*
X+3844651Y+2096376D01*
X+3885781Y+2046281D01*
X+3935876Y+2005151D01*
X+3993691Y+1974230D01*
X+4057981Y+1954765D01*
X+4127500Y+1948000D01*
X+4197019Y+1954765D01*
X+4261309Y+1974230D01*
X+4319124Y+2005151D01*
X+4369219Y+2046281D01*
X+4410349Y+2096376D01*
X+4441270Y+2154191D01*
X+4460735Y+2218481D01*
X+4467500Y+2288000D01*
X+4467500Y+2628000D01*
D63*
X+4173167Y+2242333D02*
X+4196000Y+2219500D01*
X+4196000Y+2151000D01*
X+4150333Y+2105334D01*
X+4104667Y+2105334D01*
X+4059000Y+2151000D01*
X+4059000Y+2219500D01*
X+4081833Y+2242333D01*
X+4081833Y+2310833D02*
X+4059000Y+2333666D01*
X+4059000Y+2402166D01*
X+4081833Y+2424999D01*
X+4104667Y+2424999D01*
X+4127500Y+2402166D01*
X+4150333Y+2424999D01*
X+4173167Y+2424999D01*
X+4196000Y+2402166D01*
X+4196000Y+2333666D01*
X+4173167Y+2310833D01*
X+4127500Y+2356499D02*
X+4127500Y+2402166D01*
D73*
X+4356100Y+2705100D02*
X+4533900Y+2705100D01*
X+4533900Y+3898900D01*
X+4356100Y+3898900D01*
X+4356100Y+2705100D01*
D62*
X+4477004Y+3216656D02*
X+4412996Y+3216656D01*
X+4412996Y+3269996D01*
X+4423664Y+3280664D01*
X+4434332Y+3280664D01*
X+4445000Y+3269996D01*
X+4445000Y+3216656D01*
X+4445000Y+3269996D02*
X+4455668Y+3280664D01*
X+4477004Y+3280664D01*
X+4423664Y+3366008D02*
X+4412996Y+3355340D01*
X+4412996Y+3323336D01*
X+4423664Y+3312668D01*
X+4466336Y+3312668D01*
X+4477004Y+3323336D01*
X+4477004Y+3355340D01*
X+4466336Y+3366008D01*
X+4455668Y+3366008D01*
X+4445000Y+3355340D01*
X+4445000Y+3312668D01*
D73*
X+2578100Y+1689100D02*
X+2755900Y+1689100D01*
X+2755900Y+2882900D01*
X+2578100Y+2882900D01*
X+2578100Y+1689100D01*
D62*
X+2699004Y+2200656D02*
X+2634996Y+2200656D01*
X+2634996Y+2253996D01*
X+2645664Y+2264664D01*
X+2656332Y+2264664D01*
X+2667000Y+2253996D01*
X+2667000Y+2200656D01*
X+2667000Y+2253996D02*
X+2677668Y+2264664D01*
X+2699004Y+2264664D01*
X+2645664Y+2296668D02*
X+2634996Y+2307336D01*
X+2634996Y+2339340D01*
X+2645664Y+2350008D01*
X+2656332Y+2350008D01*
X+2667000Y+2339340D01*
X+2667000Y+2307336D01*
X+2677668Y+2296668D01*
X+2699004Y+2296668D01*
X+2699004Y+2350008D01*
D73*
X+2148840Y+1894840D02*
X+2423160Y+1894840D01*
X+2423160Y+2677160D01*
X+2148840Y+2677160D01*
X+2148840Y+1894840D01*
D64*
X+2318919Y+2253081D02*
X+2335378Y+2236622D01*
X+2335378Y+2187245D01*
X+2302460Y+2154327D01*
X+2269541Y+2154327D01*
X+2236623Y+2187245D01*
X+2236623Y+2236622D01*
X+2253082Y+2253081D01*
X+2269541Y+2318918D02*
X+2236623Y+2351836D01*
X+2335378Y+2351836D01*
D73*
X+3567100Y+1689100D02*
X+3744900Y+1689100D01*
X+3744900Y+2882900D01*
X+3567100Y+2882900D01*
X+3567100Y+1689100D01*
D62*
X+3688004Y+2200656D02*
X+3623996Y+2200656D01*
X+3623996Y+2253996D01*
X+3634664Y+2264664D01*
X+3645332Y+2264664D01*
X+3656000Y+2253996D01*
X+3656000Y+2200656D01*
X+3656000Y+2253996D02*
X+3666668Y+2264664D01*
X+3688004Y+2264664D01*
X+3623996Y+2350008D02*
X+3623996Y+2296668D01*
X+3645332Y+2296668D01*
X+3645332Y+2339340D01*
X+3656000Y+2350008D01*
X+3677336Y+2350008D01*
X+3688004Y+2339340D01*
X+3688004Y+2307336D01*
X+3677336Y+2296668D01*
D73*
X+3213100Y+1689100D02*
X+3390900Y+1689100D01*
X+3390900Y+2882900D01*
X+3213100Y+2882900D01*
X+3213100Y+1689100D01*
D62*
X+3334004Y+2200656D02*
X+3269996Y+2200656D01*
X+3269996Y+2253996D01*
X+3280664Y+2264664D01*
X+3291332Y+2264664D01*
X+3302000Y+2253996D01*
X+3302000Y+2200656D01*
X+3302000Y+2253996D02*
X+3312668Y+2264664D01*
X+3334004Y+2264664D01*
X+3312668Y+2350008D02*
X+3312668Y+2286000D01*
X+3269996Y+2328672D01*
X+3334004Y+2328672D01*
D73*
X+2895600Y+1689100D02*
X+3073400Y+1689100D01*
X+3073400Y+2882900D01*
X+2895600Y+2882900D01*
X+2895600Y+1689100D01*
D62*
X+3016504Y+2200656D02*
X+2952496Y+2200656D01*
X+2952496Y+2253996D01*
X+2963164Y+2264664D01*
X+2973832Y+2264664D01*
X+2984500Y+2253996D01*
X+2984500Y+2200656D01*
X+2984500Y+2253996D02*
X+2995168Y+2264664D01*
X+3016504Y+2264664D01*
X+2963164Y+2296668D02*
X+2952496Y+2307336D01*
X+2952496Y+2339340D01*
X+2963164Y+2350008D01*
X+2973832Y+2350008D01*
X+2984500Y+2339340D01*
X+2995168Y+2350008D01*
X+3005836Y+2350008D01*
X+3016504Y+2339340D01*
X+3016504Y+2307336D01*
X+3005836Y+2296668D01*
X+2984500Y+2318004D02*
X+2984500Y+2339340D01*
D59*
X+6500000Y-2000000D02*
X+6499914Y-1997924D01*
X+6499212Y-1993771D01*
X+6497742Y-1989618D01*
X+6495340Y-1985465D01*
X+6491667Y-1981366D01*
X+6487514Y-1978357D01*
X+6483361Y-1976440D01*
X+6479208Y-1975357D01*
X+6475055Y-1975000D01*
X+6475000Y-1975000D01*
X+6450000Y-2000000D02*
X+6450086Y-1997924D01*
X+6450788Y-1993771D01*
X+6452258Y-1989618D01*
X+6454660Y-1985465D01*
X+6458333Y-1981366D01*
X+6462486Y-1978357D01*
X+6466639Y-1976440D01*
X+6470792Y-1975357D01*
X+6474945Y-1975000D01*
X+6475000Y-1975000D01*
X+6450000Y-2000000D02*
X+6450086Y-2002076D01*
X+6450788Y-2006229D01*
X+6452258Y-2010382D01*
X+6454660Y-2014535D01*
X+6458333Y-2018634D01*
X+6462486Y-2021643D01*
X+6466639Y-2023560D01*
X+6470792Y-2024643D01*
X+6474945Y-2025000D01*
X+6475000Y-2025000D01*
X+6500000Y-2000000D02*
X+6499914Y-2002076D01*
X+6499212Y-2006229D01*
X+6497742Y-2010382D01*
X+6495340Y-2014535D01*
X+6491667Y-2018634D01*
X+6487514Y-2021643D01*
X+6483361Y-2023560D01*
X+6479208Y-2024643D01*
X+6475055Y-2025000D01*
X+6475000Y-2025000D01*
X+6510000Y-2000000D02*
X+6440000Y-2000000D01*
X+6475000Y-1965000D02*
X+6475000Y-2035000D01*
X+6050000Y-1575000D02*
X+6050000Y-2000000D01*
X+6052146Y-2044169D01*
X+6058456Y-2086899D01*
X+6068735Y-2127994D01*
X+6082788Y-2167261D01*
X+6100421Y-2204504D01*
X+6121439Y-2239529D01*
X+6145647Y-2272142D01*
X+6172852Y-2302148D01*
X+6202858Y-2329353D01*
X+6235471Y-2353561D01*
X+6270496Y-2374579D01*
X+6307740Y-2392212D01*
X+6347006Y-2406265D01*
X+6388101Y-2416544D01*
X+6430831Y-2422853D01*
X+6475000Y-2425000D01*
X+6519169Y-2422853D01*
X+6561899Y-2416544D01*
X+6602994Y-2406265D01*
X+6642260Y-2392212D01*
X+6679504Y-2374579D01*
X+6714529Y-2353561D01*
X+6747142Y-2329353D01*
X+6777148Y-2302148D01*
X+6804353Y-2272142D01*
X+6828561Y-2239529D01*
X+6849579Y-2204504D01*
X+6867212Y-2167261D01*
X+6881265Y-2127994D01*
X+6891544Y-2086899D01*
X+6897854Y-2044169D01*
X+6900000Y-2000000D01*
X+6897854Y-1955831D01*
X+6891544Y-1913101D01*
X+6881265Y-1872006D01*
X+6867212Y-1832739D01*
X+6849579Y-1795496D01*
X+6828561Y-1760471D01*
X+6804353Y-1727858D01*
X+6777148Y-1697852D01*
X+6747142Y-1670647D01*
X+6714529Y-1646439D01*
X+6679504Y-1625421D01*
X+6642260Y-1607788D01*
X+6602994Y-1593735D01*
X+6561899Y-1583456D01*
X+6519169Y-1577147D01*
X+6475000Y-1575000D01*
X+6050000Y-1575000D01*
D65*
X+6418000Y-2057000D02*
X+6389500Y-2085500D01*
X+6304000Y-2085500D01*
X+6247000Y-2028500D01*
X+6247000Y-1971500D01*
X+6304000Y-1914500D01*
X+6389500Y-1914500D01*
X+6418000Y-1943000D01*
X+6532000Y-2000000D02*
X+6503500Y-1971500D01*
X+6503500Y-1943000D01*
X+6532000Y-1914500D01*
X+6617500Y-1914500D01*
X+6646000Y-1943000D01*
X+6646000Y-1971500D01*
X+6617500Y-2000000D01*
X+6532000Y-2000000D01*
X+6503500Y-2028500D01*
X+6503500Y-2057000D01*
X+6532000Y-2085500D01*
X+6617500Y-2085500D01*
X+6646000Y-2057000D01*
X+6646000Y-2028500D01*
X+6617500Y-2000000D01*
D73*
X+145340Y-1664160D02*
X+737160Y-1664160D01*
X+737160Y-1072340D01*
X+145340Y-1072340D01*
X+145340Y-1664160D01*
D66*
X+283432Y-1427432D02*
X+283432Y-1309068D01*
X+362341Y-1309068D01*
X+401795Y-1348523D01*
X+401795Y-1387977D01*
X+362341Y-1427432D01*
X+283432Y-1427432D01*
X+480704Y-1348523D02*
X+520159Y-1309068D01*
X+520159Y-1427432D01*
D73*
X+1311100Y-1088900D02*
X+1488900Y-1088900D01*
X+1488900Y+104900D01*
X+1311100Y+104900D01*
X+1311100Y-1088900D01*
D62*
X+1432004Y-577344D02*
X+1367996Y-577344D01*
X+1367996Y-524004D01*
X+1378664Y-513336D01*
X+1389332Y-513336D01*
X+1400000Y-524004D01*
X+1400000Y-577344D01*
X+1400000Y-524004D02*
X+1410668Y-513336D01*
X+1432004Y-513336D01*
X+1389332Y-470664D02*
X+1367996Y-449328D01*
X+1432004Y-449328D01*
D73*
X+9145340Y-1664160D02*
X+9737160Y-1664160D01*
X+9737160Y-1072340D01*
X+9145340Y-1072340D01*
X+9145340Y-1664160D01*
D66*
X+9283432Y-1427432D02*
X+9283432Y-1309068D01*
X+9362341Y-1309068D01*
X+9401795Y-1348523D01*
X+9401795Y-1387977D01*
X+9362341Y-1427432D01*
X+9283432Y-1427432D01*
X+9460977Y-1328795D02*
X+9480704Y-1309068D01*
X+9539886Y-1309068D01*
X+9559613Y-1328795D01*
X+9559613Y-1348523D01*
X+9539886Y-1368250D01*
X+9559613Y-1387977D01*
X+9559613Y-1407705D01*
X+9539886Y-1427432D01*
X+9480704Y-1427432D01*
X+9460977Y-1407705D01*
X+9500431Y-1368250D02*
X+9539886Y-1368250D01*
D73*
X+8911100Y+111100D02*
X+10104900Y+111100D01*
X+10104900Y+288900D01*
X+8911100Y+288900D01*
X+8911100Y+111100D01*
D62*
X+9379984Y+167996D02*
X+9379984Y+232004D01*
X+9433324Y+232004D01*
X+9443992Y+221336D01*
X+9443992Y+210668D01*
X+9433324Y+200000D01*
X+9379984Y+200000D01*
X+9433324Y+200000D02*
X+9443992Y+189332D01*
X+9443992Y+167996D01*
X+9486664Y+210668D02*
X+9508000Y+232004D01*
X+9508000Y+167996D01*
X+9614680Y+189332D02*
X+9550672Y+189332D01*
X+9593344Y+232004D01*
X+9593344Y+167996D01*
D17*
X+250000Y-2000000D02*
X+249185Y-1979829D01*
X+242566Y-1939486D01*
X+228753Y-1899143D01*
X+206307Y-1858800D01*
X+172010Y-1818582D01*
X+131667Y-1787482D01*
X+91324Y-1767277D01*
X+50981Y-1755253D01*
X+10638Y-1750226D01*
X+0Y-1750000D01*
X-250000Y-2000000D02*
X-249185Y-1979829D01*
X-242566Y-1939486D01*
X-228753Y-1899143D01*
X-206307Y-1858800D01*
X-172010Y-1818582D01*
X-131667Y-1787482D01*
X-91324Y-1767277D01*
X-50981Y-1755253D01*
X-10638Y-1750226D01*
X+0Y-1750000D01*
X-250000Y-2000000D02*
X-249185Y-2020171D01*
X-242566Y-2060514D01*
X-228753Y-2100857D01*
X-206307Y-2141200D01*
X-172010Y-2181418D01*
X-131667Y-2212518D01*
X-91324Y-2232723D01*
X-50981Y-2244747D01*
X-10638Y-2249774D01*
X+0Y-2250000D01*
X+250000Y-2000000D02*
X+249185Y-2020171D01*
X+242566Y-2060514D01*
X+228753Y-2100857D01*
X+206307Y-2141200D01*
X+172010Y-2181418D01*
X+131667Y-2212518D01*
X+91324Y-2232723D01*
X+50981Y-2244747D01*
X+10638Y-2249774D01*
X+0Y-2250000D01*
X+10250000Y-2000000D02*
X+10249185Y-1979829D01*
X+10242566Y-1939486D01*
X+10228753Y-1899143D01*
X+10206307Y-1858800D01*
X+10172010Y-1818582D01*
X+10131667Y-1787482D01*
X+10091324Y-1767277D01*
X+10050981Y-1755253D01*
X+10010638Y-1750226D01*
X+10000000Y-1750000D01*
X+9750000Y-2000000D02*
X+9750815Y-1979829D01*
X+9757434Y-1939486D01*
X+9771247Y-1899143D01*
X+9793693Y-1858800D01*
X+9827990Y-1818582D01*
X+9868333Y-1787482D01*
X+9908676Y-1767277D01*
X+9949019Y-1755253D01*
X+9989362Y-1750226D01*
X+10000000Y-1750000D01*
X+9750000Y-2000000D02*
X+9750815Y-2020171D01*
X+9757434Y-2060514D01*
X+9771247Y-2100857D01*
X+9793693Y-2141200D01*
X+9827990Y-2181418D01*
X+9868333Y-2212518D01*
X+9908676Y-2232723D01*
X+9949019Y-2244747D01*
X+9989362Y-2249774D01*
X+10000000Y-2250000D01*
X+10250000Y-2000000D02*
X+10249185Y-2020171D01*
X+10242566Y-2060514D01*
X+10228753Y-2100857D01*
X+10206307Y-2141200D01*
X+10172010Y-2181418D01*
X+10131667Y-2212518D01*
X+10091324Y-2232723D01*
X+10050981Y-2244747D01*
X+10010638Y-2249774D01*
X+10000000Y-2250000D01*
X+10250000Y+4250000D02*
X+10249185Y+4270171D01*
X+10242566Y+4310514D01*
X+10228753Y+4350857D01*
X+10206307Y+4391200D01*
X+10172010Y+4431418D01*
X+10131667Y+4462518D01*
X+10091324Y+4482723D01*
X+10050981Y+4494747D01*
X+10010638Y+4499774D01*
X+10000000Y+4500000D01*
X+9750000Y+4250000D02*
X+9750815Y+4270171D01*
X+9757434Y+4310514D01*
X+9771247Y+4350857D01*
X+9793693Y+4391200D01*
X+9827990Y+4431418D01*
X+9868333Y+4462518D01*
X+9908676Y+4482723D01*
X+9949019Y+4494747D01*
X+9989362Y+4499774D01*
X+10000000Y+4500000D01*
X+9750000Y+4250000D02*
X+9750815Y+4229829D01*
X+9757434Y+4189486D01*
X+9771247Y+4149143D01*
X+9793693Y+4108800D01*
X+9827990Y+4068582D01*
X+9868333Y+4037482D01*
X+9908676Y+4017277D01*
X+9949019Y+4005253D01*
X+9989362Y+4000226D01*
X+10000000Y+4000000D01*
X+10250000Y+4250000D02*
X+10249185Y+4229829D01*
X+10242566Y+4189486D01*
X+10228753Y+4149143D01*
X+10206307Y+4108800D01*
X+10172010Y+4068582D01*
X+10131667Y+4037482D01*
X+10091324Y+4017277D01*
X+10050981Y+4005253D01*
X+10010638Y+4000226D01*
X+10000000Y+4000000D01*
X+250000Y+4250000D02*
X+249185Y+4270171D01*
X+242566Y+4310514D01*
X+228753Y+4350857D01*
X+206307Y+4391200D01*
X+172010Y+4431418D01*
X+131667Y+4462518D01*
X+91324Y+4482723D01*
X+50981Y+4494747D01*
X+10638Y+4499774D01*
X+0Y+4500000D01*
X-250000Y+4250000D02*
X-249185Y+4270171D01*
X-242566Y+4310514D01*
X-228753Y+4350857D01*
X-206307Y+4391200D01*
X-172010Y+4431418D01*
X-131667Y+4462518D01*
X-91324Y+4482723D01*
X-50981Y+4494747D01*
X-10638Y+4499774D01*
X+0Y+4500000D01*
X-250000Y+4250000D02*
X-249185Y+4229829D01*
X-242566Y+4189486D01*
X-228753Y+4149143D01*
X-206307Y+4108800D01*
X-172010Y+4068582D01*
X-131667Y+4037482D01*
X-91324Y+4017277D01*
X-50981Y+4005253D01*
X-10638Y+4000226D01*
X+0Y+4000000D01*
X+250000Y+4250000D02*
X+249185Y+4229829D01*
X+242566Y+4189486D01*
X+228753Y+4149143D01*
X+206307Y+4108800D01*
X+172010Y+4068582D01*
X+131667Y+4037482D01*
X+91324Y+4017277D01*
X+50981Y+4005253D01*
X+10638Y+4000226D01*
X+0Y+4000000D01*
X+2853553Y+850000D02*
X+2852430Y+878155D01*
X+2843315Y+934467D01*
X+2824316Y+990779D01*
X+2793521Y+1047091D01*
X+2746596Y+1103358D01*
X+2690284Y+1147979D01*
X+2633972Y+1177187D01*
X+2577660Y+1194918D01*
X+2521348Y+1202908D01*
X+2500000Y+1203553D01*
X+2146447Y+850000D02*
X+2147570Y+878155D01*
X+2156685Y+934467D01*
X+2175684Y+990779D01*
X+2206479Y+1047091D01*
X+2253404Y+1103358D01*
X+2309716Y+1147979D01*
X+2366028Y+1177187D01*
X+2422340Y+1194918D01*
X+2478652Y+1202908D01*
X+2500000Y+1203553D01*
X+2146447Y+850000D02*
X+2147570Y+821845D01*
X+2156685Y+765533D01*
X+2175684Y+709221D01*
X+2206479Y+652909D01*
X+2253404Y+596642D01*
X+2309716Y+552021D01*
X+2366028Y+522813D01*
X+2422340Y+505082D01*
X+2478652Y+497092D01*
X+2500000Y+496447D01*
X+2853553Y+850000D02*
X+2852430Y+821845D01*
X+2843315Y+765533D01*
X+2824316Y+709221D01*
X+2793521Y+652909D01*
X+2746596Y+596642D01*
X+2690284Y+552021D01*
X+2633972Y+522813D01*
X+2577660Y+505082D01*
X+2521348Y+497092D01*
X+2500000Y+496447D01*
X+2853553Y-1850000D02*
X+2852430Y-1821845D01*
X+2843315Y-1765533D01*
X+2824316Y-1709221D01*
X+2793521Y-1652909D01*
X+2746596Y-1596642D01*
X+2690284Y-1552021D01*
X+2633972Y-1522813D01*
X+2577660Y-1505082D01*
X+2521348Y-1497092D01*
X+2500000Y-1496447D01*
X+2146447Y-1850000D02*
X+2147570Y-1821845D01*
X+2156685Y-1765533D01*
X+2175684Y-1709221D01*
X+2206479Y-1652909D01*
X+2253404Y-1596642D01*
X+2309716Y-1552021D01*
X+2366028Y-1522813D01*
X+2422340Y-1505082D01*
X+2478652Y-1497092D01*
X+2500000Y-1496447D01*
X+2146447Y-1850000D02*
X+2147570Y-1878155D01*
X+2156685Y-1934467D01*
X+2175684Y-1990779D01*
X+2206479Y-2047091D01*
X+2253404Y-2103358D01*
X+2309716Y-2147979D01*
X+2366028Y-2177187D01*
X+2422340Y-2194918D01*
X+2478652Y-2202908D01*
X+2500000Y-2203553D01*
X+2853553Y-1850000D02*
X+2852430Y-1878155D01*
X+2843315Y-1934467D01*
X+2824316Y-1990779D01*
X+2793521Y-2047091D01*
X+2746596Y-2103358D01*
X+2690284Y-2147979D01*
X+2633972Y-2177187D01*
X+2577660Y-2194918D01*
X+2521348Y-2202908D01*
X+2500000Y-2203553D01*
X+5853553Y+850000D02*
X+5852430Y+878155D01*
X+5843315Y+934467D01*
X+5824316Y+990779D01*
X+5793521Y+1047091D01*
X+5746596Y+1103358D01*
X+5690284Y+1147979D01*
X+5633972Y+1177187D01*
X+5577660Y+1194918D01*
X+5521348Y+1202908D01*
X+5500000Y+1203553D01*
X+5146447Y+850000D02*
X+5147570Y+878155D01*
X+5156685Y+934467D01*
X+5175684Y+990779D01*
X+5206479Y+1047091D01*
X+5253404Y+1103358D01*
X+5309716Y+1147979D01*
X+5366028Y+1177187D01*
X+5422340Y+1194918D01*
X+5478652Y+1202908D01*
X+5500000Y+1203553D01*
X+5146447Y+850000D02*
X+5147570Y+821845D01*
X+5156685Y+765533D01*
X+5175684Y+709221D01*
X+5206479Y+652909D01*
X+5253404Y+596642D01*
X+5309716Y+552021D01*
X+5366028Y+522813D01*
X+5422340Y+505082D01*
X+5478652Y+497092D01*
X+5500000Y+496447D01*
X+5853553Y+850000D02*
X+5852430Y+821845D01*
X+5843315Y+765533D01*
X+5824316Y+709221D01*
X+5793521Y+652909D01*
X+5746596Y+596642D01*
X+5690284Y+552021D01*
X+5633972Y+522813D01*
X+5577660Y+505082D01*
X+5521348Y+497092D01*
X+5500000Y+496447D01*
X+5853553Y-1850000D02*
X+5852430Y-1821845D01*
X+5843315Y-1765533D01*
X+5824316Y-1709221D01*
X+5793521Y-1652909D01*
X+5746596Y-1596642D01*
X+5690284Y-1552021D01*
X+5633972Y-1522813D01*
X+5577660Y-1505082D01*
X+5521348Y-1497092D01*
X+5500000Y-1496447D01*
X+5146447Y-1850000D02*
X+5147570Y-1821845D01*
X+5156685Y-1765533D01*
X+5175684Y-1709221D01*
X+5206479Y-1652909D01*
X+5253404Y-1596642D01*
X+5309716Y-1552021D01*
X+5366028Y-1522813D01*
X+5422340Y-1505082D01*
X+5478652Y-1497092D01*
X+5500000Y-1496447D01*
X+5146447Y-1850000D02*
X+5147570Y-1878155D01*
X+5156685Y-1934467D01*
X+5175684Y-1990779D01*
X+5206479Y-2047091D01*
X+5253404Y-2103358D01*
X+5309716Y-2147979D01*
X+5366028Y-2177187D01*
X+5422340Y-2194918D01*
X+5478652Y-2202908D01*
X+5500000Y-2203553D01*
X+5853553Y-1850000D02*
X+5852430Y-1878155D01*
X+5843315Y-1934467D01*
X+5824316Y-1990779D01*
X+5793521Y-2047091D01*
X+5746596Y-2103358D01*
X+5690284Y-2147979D01*
X+5633972Y-2177187D01*
X+5577660Y-2194918D01*
X+5521348Y-2202908D01*
X+5500000Y-2203553D01*
M02*
