G04 PROTEUS GERBER X2 FILE*
%TF.GenerationSoftware,Labcenter,Proteus,8.6-SP2-Build23525*%
%TF.CreationDate,2018-04-04T03:23:59+00:00*%
%TF.FileFunction,Plated,1,2,PTH*%
%TF.FilePolarity,Positive*%
%TF.Part,Single*%
%FSLAX45Y45*%
%MOMM*%
G01*
%TA.AperFunction,ComponentDrill*%
%ADD75C,1.524000*%
%TA.AperFunction,ComponentDrill*%
%ADD76C,1.016000*%
%TA.AperFunction,ComponentDrill*%
%ADD77C,1.270000*%
%ADD78C,0.762000*%
%TD.AperFunction*%
D75*
X+500000Y-758000D03*
X+500000Y-250000D03*
D76*
X+4000000Y-2000000D03*
X+4000000Y+1000000D03*
X+7920395Y+1079605D03*
X+8100000Y+900000D03*
X+8279606Y+720395D03*
D77*
X+7250000Y+350000D03*
X+7250000Y-1400000D03*
D78*
X+8128000Y-127000D03*
X+7928000Y-127000D03*
X+8128000Y-825500D03*
X+7928000Y-825500D03*
D75*
X+9500000Y-750000D03*
X+9500000Y-242000D03*
D78*
X+7643684Y+2356316D03*
X+7500000Y+2500000D03*
X+7356316Y+2643684D03*
X+6856316Y+2143684D03*
X+7000000Y+2000000D03*
X+7143684Y+1856315D03*
X+6078500Y+2673860D03*
X+6078500Y+1657860D03*
X+4127500Y+2413000D03*
X+4127500Y+2163000D03*
X+4445000Y+3810000D03*
X+4445000Y+2794000D03*
X+2667000Y+1778000D03*
X+2667000Y+2794000D03*
X+2286000Y+2032000D03*
X+2286000Y+2540000D03*
X+3656000Y+2794000D03*
X+3656000Y+1778000D03*
X+3302000Y+2794000D03*
X+3302000Y+1778000D03*
X+2984500Y+2794000D03*
X+2984500Y+1778000D03*
X+6300000Y-2000000D03*
X+6650000Y-2000000D03*
D76*
X+346000Y-1400000D03*
X+600000Y-1400000D03*
D78*
X+1400000Y-1000000D03*
X+1400000Y+16000D03*
D76*
X+9346000Y-1400000D03*
X+9600000Y-1400000D03*
D78*
X+10016000Y+200000D03*
X+9000000Y+200000D03*
M02*
