G04 PROTEUS GERBER X2 FILE*
%TF.GenerationSoftware,Labcenter,Proteus,8.6-SP2-Build23525*%
%TF.CreationDate,2018-04-04T03:23:59+00:00*%
%TF.FileFunction,Copper,L2,Bot*%
%TF.FilePolarity,Positive*%
%TF.Part,Single*%
%FSLAX45Y45*%
%MOMM*%
G01*
%TA.AperFunction,Conductor*%
%ADD18C,1.524000*%
%ADD19C,1.778000*%
%ADD70C,0.762000*%
%ADD71C,0.508000*%
%ADD20C,0.381000*%
%ADD21C,0.254000*%
%ADD22C,1.270000*%
%TA.AperFunction,ComponentPad*%
%ADD10C,3.048000*%
%TA.AperFunction,ComponentPad*%
%ADD11R,2.032000X2.032000*%
%AMPPAD002*
4,1,4,
0.000000,1.436840,
1.436840,0.000000,
0.000000,-1.436840,
-1.436840,0.000000,
0.000000,1.436840,
0*%
%TA.AperFunction,ComponentPad*%
%ADD12PPAD002*%
%TA.AperFunction,ComponentPad*%
%ADD13C,3.810000*%
%AMDIL004*
4,1,8,
-0.762000,0.965200,-0.457200,1.270000,0.457200,1.270000,0.762000,0.965200,0.762000,-0.965200,
0.457200,-1.270000,-0.457200,-1.270000,-0.762000,-0.965200,-0.762000,0.965200,
0*%
%ADD14DIL004*%
%TA.AperFunction,SMDPad,CuDef*%
%ADD23R,1.270000X1.016000*%
%ADD24R,1.016000X1.524000*%
%ADD25R,1.524000X1.016000*%
%TA.AperFunction,SMDPad,CuDef*%
%ADD26R,0.609600X1.498600*%
%AMPPAD019*
4,1,4,
0.089800,0.808220,
0.808220,0.089800,
-0.089800,-0.808220,
-0.808220,-0.089800,
0.089800,0.808220,
0*%
%TA.AperFunction,SMDPad,CuDef*%
%ADD27PPAD019*%
%AMPPAD020*
4,1,4,
0.808220,-0.089800,
0.089800,-0.808220,
-0.808220,0.089800,
-0.089800,0.808220,
0.808220,-0.089800,
0*%
%ADD28PPAD020*%
%TA.AperFunction,ComponentPad*%
%ADD15C,1.778000*%
%AMDIL006*
4,1,8,
-1.270000,0.457200,-0.965200,0.762000,0.965200,0.762000,1.270000,0.457200,1.270000,-0.457200,
0.965200,-0.762000,-0.965200,-0.762000,-1.270000,-0.457200,-1.270000,0.457200,
0*%
%TA.AperFunction,ComponentPad*%
%ADD16DIL006*%
%TA.AperFunction,SMDPad,CuDef*%
%ADD29R,1.016000X1.270000*%
%TA.AperFunction,Profile*%
%ADD17C,0.203200*%
%TA.AperFunction,NonConductor*%
%ADD72C,0.203200*%
%TD.AperFunction*%
G36*
X+9757520Y+4465102D02*
X+9713824Y+4402466D01*
X+9710550Y+4393613D01*
X+9683591Y+4320704D01*
X+9675909Y+4250000D01*
X+9676773Y+4242043D01*
X+9683591Y+4179296D01*
X+9713824Y+4097534D01*
X+9719227Y+4089788D01*
X+9757520Y+4034898D01*
X+9810649Y+3986974D01*
X+9870586Y+3952896D01*
X+9877997Y+3950548D01*
X+9934592Y+3932623D01*
X+9942139Y+3931854D01*
X+10000000Y+3925961D01*
X+10065408Y+3932623D01*
X+10129414Y+3952896D01*
X+10136169Y+3956736D01*
X+10189351Y+3986974D01*
X+10195310Y+3992349D01*
X+10242480Y+4034898D01*
X+10286176Y+4097534D01*
X+10287750Y+4101791D01*
X+10299025Y-1882281D01*
X+10286176Y-1847534D01*
X+10280773Y-1839788D01*
X+10242480Y-1784898D01*
X+10189351Y-1736974D01*
X+10129414Y-1702896D01*
X+10122003Y-1700548D01*
X+10065408Y-1682623D01*
X+10057861Y-1681854D01*
X+10000000Y-1675961D01*
X+9934592Y-1682623D01*
X+9870586Y-1702896D01*
X+9863831Y-1706736D01*
X+9810649Y-1736974D01*
X+9804690Y-1742349D01*
X+9757520Y-1784898D01*
X+9713824Y-1847534D01*
X+9710550Y-1856387D01*
X+9683591Y-1929296D01*
X+9675909Y-2000000D01*
X+9676773Y-2007957D01*
X+9683591Y-2070704D01*
X+9713824Y-2152466D01*
X+9719227Y-2160212D01*
X+9757520Y-2215102D01*
X+9810649Y-2263026D01*
X+9870586Y-2297104D01*
X+9877997Y-2299452D01*
X+9934592Y-2317377D01*
X+9942139Y-2318146D01*
X+10000000Y-2324039D01*
X+10065408Y-2317377D01*
X+10129414Y-2297104D01*
X+10136169Y-2293264D01*
X+10189351Y-2263026D01*
X+10195310Y-2257651D01*
X+10242480Y-2215102D01*
X+10286176Y-2152466D01*
X+10289450Y-2143613D01*
X+10299466Y-2116526D01*
X+10300000Y-2400000D01*
X-300000Y-2400000D01*
X-298134Y-2120127D01*
X-286176Y-2152466D01*
X-280773Y-2160212D01*
X-242480Y-2215102D01*
X-189351Y-2263026D01*
X-129414Y-2297104D01*
X-122003Y-2299452D01*
X-65408Y-2317377D01*
X-57861Y-2318146D01*
X+0Y-2324039D01*
X+65408Y-2317377D01*
X+129414Y-2297104D01*
X+136169Y-2293264D01*
X+189351Y-2263026D01*
X+195310Y-2257651D01*
X+242480Y-2215102D01*
X+286176Y-2152466D01*
X+289450Y-2143613D01*
X+316409Y-2070704D01*
X+323659Y-2030511D01*
X+323659Y-1969489D01*
X+316409Y-1929296D01*
X+286176Y-1847534D01*
X+280773Y-1839788D01*
X+242480Y-1784898D01*
X+189351Y-1736974D01*
X+129414Y-1702896D01*
X+122003Y-1700548D01*
X+65408Y-1682623D01*
X+57861Y-1681854D01*
X+0Y-1675961D01*
X-65408Y-1682623D01*
X-129414Y-1702896D01*
X-136169Y-1706736D01*
X-189351Y-1736974D01*
X-195310Y-1742349D01*
X-242480Y-1784898D01*
X-286176Y-1847534D01*
X-289450Y-1856387D01*
X-296503Y-1875462D01*
X-256962Y+4055657D01*
X-242480Y+4034898D01*
X-189351Y+3986974D01*
X-129414Y+3952896D01*
X-122003Y+3950548D01*
X-65408Y+3932623D01*
X-57861Y+3931854D01*
X+0Y+3925961D01*
X+65408Y+3932623D01*
X+129414Y+3952896D01*
X+136169Y+3956736D01*
X+189351Y+3986974D01*
X+195310Y+3992349D01*
X+242480Y+4034898D01*
X+286176Y+4097534D01*
X+289450Y+4106387D01*
X+316409Y+4179296D01*
X+323659Y+4219489D01*
X+323659Y+4280511D01*
X+316409Y+4320704D01*
X+286176Y+4402466D01*
X+280773Y+4410212D01*
X+242480Y+4465102D01*
X+203792Y+4500000D01*
X+9796208Y+4500000D01*
X+9757520Y+4465102D01*
G37*
%LPC*%
G36*
X+4635499Y+3911599D02*
X+7027083Y+3911599D01*
X+9901599Y+1037083D01*
X+9901599Y+390499D01*
X+10155699Y+390499D01*
X+10155699Y+9501D01*
X+10094614Y+9501D01*
X+10094614Y-1049068D01*
X+9765099Y-1378583D01*
X+9765099Y-1565099D01*
X+9180901Y-1565099D01*
X+9180901Y-1234901D01*
X+9244401Y-1234901D01*
X+9244401Y-965199D01*
X+8432365Y-965199D01*
X+7857865Y-1539699D01*
X+7469510Y-1539699D01*
X+7355210Y-1653999D01*
X+7144790Y-1653999D01*
X+6996001Y-1505210D01*
X+6996001Y-1294790D01*
X+7144790Y-1146001D01*
X+7355210Y-1146001D01*
X+7469510Y-1260301D01*
X+7742135Y-1260301D01*
X+7986437Y-1015999D01*
X+7788301Y-1015999D01*
X+7788301Y-635001D01*
X+7801001Y-635001D01*
X+7801001Y-425603D01*
X+7765097Y-389699D01*
X+5937263Y-389699D01*
X+6789699Y-1242135D01*
X+6789699Y-2190499D01*
X+6510301Y-2190499D01*
X+6510301Y-1357865D01*
X+5542135Y-389699D01*
X+1200661Y-389699D01*
X+1200661Y-333265D01*
X+1175261Y-307865D01*
X+1175261Y-192135D01*
X+1200661Y-166735D01*
X+1200661Y-110301D01*
X+1209501Y-110301D01*
X+1209501Y+155699D01*
X+1590499Y+155699D01*
X+1590499Y-110301D01*
X+7292135Y-110301D01*
X+7729635Y+327199D01*
X+8172801Y+327199D01*
X+8172801Y+593715D01*
X+8082040Y+684476D01*
X+7607865Y+210301D01*
X+7469510Y+210301D01*
X+7355210Y+96001D01*
X+7193565Y+96001D01*
X+7157865Y+60301D01*
X+4742135Y+60301D01*
X+3967535Y+834901D01*
X+3834901Y+834901D01*
X+3834901Y+1165099D01*
X+4165099Y+1165099D01*
X+4165099Y+1032465D01*
X+4857865Y+339699D01*
X+6996001Y+339699D01*
X+6996001Y+455210D01*
X+7144790Y+603999D01*
X+7355210Y+603999D01*
X+7469510Y+489699D01*
X+7492135Y+489699D01*
X+7884476Y+882040D01*
X+7866515Y+900000D01*
X+7686910Y+1079605D01*
X+7740792Y+1133486D01*
X+7517960Y+1356318D01*
X+7491020Y+1329377D01*
X+7178509Y+1641888D01*
X+7205450Y+1668828D01*
X+7170362Y+1703916D01*
X+7080558Y+1703916D01*
X+6991285Y+1793189D01*
X+6991285Y+1847601D01*
X+6973323Y+1847601D01*
X+6694683Y+1568961D01*
X+6565900Y+1568961D01*
X+6565900Y+1308040D01*
X+1911100Y+1311160D01*
X+1911100Y+1957918D01*
X+601599Y+648417D01*
X+601599Y+614299D01*
X+639699Y+614299D01*
X+639699Y+385701D01*
X+360301Y+385701D01*
X+360301Y+614299D01*
X+398401Y+614299D01*
X+398401Y+732583D01*
X+1911100Y+2245282D01*
X+1911100Y+2287110D01*
X+228599Y+604609D01*
X+228599Y-342917D01*
X+427783Y-542101D01*
X+589428Y-542101D01*
X+665628Y-618301D01*
X+2815865Y-618301D01*
X+3900000Y-1702436D01*
X+4442135Y-1160301D01*
X+5957865Y-1160301D01*
X+6439699Y-1642135D01*
X+6439699Y-2190499D01*
X+6160301Y-2190499D01*
X+6160301Y-1757865D01*
X+5842135Y-1439699D01*
X+5614353Y-1439699D01*
X+5643939Y-1447469D01*
X+5712198Y-1478878D01*
X+5775133Y-1522779D01*
X+5830663Y-1578976D01*
X+5876742Y-1647761D01*
X+5879578Y-1654723D01*
X+5879579Y-1654722D01*
X+5911417Y-1732867D01*
X+5927212Y-1819489D01*
X+5927212Y-1880511D01*
X+5911417Y-1967133D01*
X+5876742Y-2052239D01*
X+5872561Y-2058481D01*
X+5830663Y-2121024D01*
X+5822197Y-2129592D01*
X+5775133Y-2177221D01*
X+5769614Y-2181071D01*
X+5712198Y-2221122D01*
X+5697845Y-2227726D01*
X+5643939Y-2252531D01*
X+5637710Y-2254167D01*
X+5572518Y-2271288D01*
X+5500000Y-2277479D01*
X+5490165Y-2276639D01*
X+5427482Y-2271288D01*
X+5356061Y-2252531D01*
X+5287802Y-2221122D01*
X+5224867Y-2177221D01*
X+5169337Y-2121024D01*
X+5123258Y-2052239D01*
X+5120422Y-2045277D01*
X+5120421Y-2045278D01*
X+5088583Y-1967133D01*
X+5072060Y-1850000D01*
X+5073511Y-1839712D01*
X+5088583Y-1732867D01*
X+5123258Y-1647761D01*
X+5127439Y-1641519D01*
X+5169337Y-1578976D01*
X+5177803Y-1570408D01*
X+5224867Y-1522779D01*
X+5230386Y-1518929D01*
X+5287802Y-1478878D01*
X+5302155Y-1472274D01*
X+5356061Y-1447469D01*
X+5385647Y-1439699D01*
X+4557865Y-1439699D01*
X+4162663Y-1834901D01*
X+4165099Y-1834901D01*
X+4165099Y-2165099D01*
X+3834901Y-2165099D01*
X+3834901Y-2032465D01*
X+2700135Y-897699D01*
X+1590499Y-897699D01*
X+1590499Y-1139699D01*
X+1403983Y-1139699D01*
X+1042083Y-1501599D01*
X+765099Y-1501599D01*
X+765099Y-1565099D01*
X+180901Y-1565099D01*
X+180901Y-1234901D01*
X+244401Y-1234901D01*
X+244401Y-869917D01*
X+284101Y-830217D01*
X+284101Y-685783D01*
X+25401Y-427083D01*
X+25401Y+688775D01*
X+1911100Y+2574474D01*
X+1911100Y+2737271D01*
X+2963622Y+3771900D01*
X+4254501Y+3771900D01*
X+4254501Y+3949699D01*
X+4635499Y+3949699D01*
X+4635499Y+3911599D01*
G37*
G36*
X+2509835Y+1276639D02*
X+2572518Y+1271288D01*
X+2643939Y+1252531D01*
X+2712198Y+1221122D01*
X+2775133Y+1177221D01*
X+2830663Y+1121024D01*
X+2876742Y+1052239D01*
X+2879578Y+1045277D01*
X+2879579Y+1045278D01*
X+2911417Y+967133D01*
X+2927212Y+880511D01*
X+2927212Y+819489D01*
X+2911417Y+732867D01*
X+2876742Y+647761D01*
X+2872561Y+641519D01*
X+2830663Y+578976D01*
X+2822197Y+570408D01*
X+2775133Y+522779D01*
X+2769614Y+518929D01*
X+2712198Y+478878D01*
X+2697845Y+472274D01*
X+2643939Y+447469D01*
X+2637710Y+445833D01*
X+2572518Y+428712D01*
X+2500000Y+422521D01*
X+2490165Y+423361D01*
X+2427482Y+428712D01*
X+2356061Y+447469D01*
X+2287802Y+478878D01*
X+2224867Y+522779D01*
X+2169337Y+578976D01*
X+2123258Y+647761D01*
X+2120422Y+654723D01*
X+2120421Y+654722D01*
X+2088583Y+732867D01*
X+2072060Y+850000D01*
X+2073511Y+860288D01*
X+2088583Y+967133D01*
X+2123258Y+1052239D01*
X+2127439Y+1058481D01*
X+2169337Y+1121024D01*
X+2177803Y+1129592D01*
X+2224867Y+1177221D01*
X+2230386Y+1181071D01*
X+2287802Y+1221122D01*
X+2302155Y+1227726D01*
X+2356061Y+1252531D01*
X+2362290Y+1254167D01*
X+2427482Y+1271288D01*
X+2500000Y+1277479D01*
X+2509835Y+1276639D01*
G37*
G36*
X+2509835Y-1423361D02*
X+2572518Y-1428712D01*
X+2643939Y-1447469D01*
X+2712198Y-1478878D01*
X+2775133Y-1522779D01*
X+2830663Y-1578976D01*
X+2876742Y-1647761D01*
X+2879578Y-1654723D01*
X+2879579Y-1654722D01*
X+2911417Y-1732867D01*
X+2927212Y-1819489D01*
X+2927212Y-1880511D01*
X+2911417Y-1967133D01*
X+2876742Y-2052239D01*
X+2872561Y-2058481D01*
X+2830663Y-2121024D01*
X+2822197Y-2129592D01*
X+2775133Y-2177221D01*
X+2769614Y-2181071D01*
X+2712198Y-2221122D01*
X+2697845Y-2227726D01*
X+2643939Y-2252531D01*
X+2637710Y-2254167D01*
X+2572518Y-2271288D01*
X+2500000Y-2277479D01*
X+2490165Y-2276639D01*
X+2427482Y-2271288D01*
X+2356061Y-2252531D01*
X+2287802Y-2221122D01*
X+2224867Y-2177221D01*
X+2169337Y-2121024D01*
X+2123258Y-2052239D01*
X+2120422Y-2045277D01*
X+2120421Y-2045278D01*
X+2088583Y-1967133D01*
X+2072060Y-1850000D01*
X+2073511Y-1839712D01*
X+2088583Y-1732867D01*
X+2123258Y-1647761D01*
X+2127439Y-1641519D01*
X+2169337Y-1578976D01*
X+2177803Y-1570408D01*
X+2224867Y-1522779D01*
X+2230386Y-1518929D01*
X+2287802Y-1478878D01*
X+2302155Y-1472274D01*
X+2356061Y-1447469D01*
X+2362290Y-1445833D01*
X+2427482Y-1428712D01*
X+2500000Y-1422521D01*
X+2509835Y-1423361D01*
G37*
G36*
X+5509835Y+1276639D02*
X+5572518Y+1271288D01*
X+5643939Y+1252531D01*
X+5712198Y+1221122D01*
X+5775133Y+1177221D01*
X+5830663Y+1121024D01*
X+5876742Y+1052239D01*
X+5879578Y+1045277D01*
X+5879579Y+1045278D01*
X+5911417Y+967133D01*
X+5927212Y+880511D01*
X+5927212Y+819489D01*
X+5911417Y+732867D01*
X+5876742Y+647761D01*
X+5872561Y+641519D01*
X+5830663Y+578976D01*
X+5822197Y+570408D01*
X+5775133Y+522779D01*
X+5769614Y+518929D01*
X+5712198Y+478878D01*
X+5697845Y+472274D01*
X+5643939Y+447469D01*
X+5637710Y+445833D01*
X+5572518Y+428712D01*
X+5500000Y+422521D01*
X+5490165Y+423361D01*
X+5427482Y+428712D01*
X+5356061Y+447469D01*
X+5287802Y+478878D01*
X+5224867Y+522779D01*
X+5169337Y+578976D01*
X+5123258Y+647761D01*
X+5120422Y+654723D01*
X+5120421Y+654722D01*
X+5088583Y+732867D01*
X+5072060Y+850000D01*
X+5073511Y+860288D01*
X+5088583Y+967133D01*
X+5123258Y+1052239D01*
X+5127439Y+1058481D01*
X+5169337Y+1121024D01*
X+5177803Y+1129592D01*
X+5224867Y+1177221D01*
X+5230386Y+1181071D01*
X+5287802Y+1221122D01*
X+5302155Y+1227726D01*
X+5356061Y+1252531D01*
X+5362290Y+1254167D01*
X+5427482Y+1271288D01*
X+5500000Y+1277479D01*
X+5509835Y+1276639D01*
G37*
G36*
X+1863500Y+3136500D02*
X+36500Y+3136500D01*
X+36500Y+3763500D01*
X+1863500Y+3763500D01*
X+1863500Y+3136500D01*
G37*
G36*
X+589428Y-465899D02*
X+410572Y-465899D01*
X+284101Y-339428D01*
X+284101Y-160572D01*
X+410572Y-34101D01*
X+589428Y-34101D01*
X+715899Y-160572D01*
X+715899Y-339428D01*
X+589428Y-465899D01*
G37*
G36*
X+1114299Y-389699D02*
X+885701Y-389699D01*
X+885701Y-110301D01*
X+1114299Y-110301D01*
X+1114299Y-389699D01*
G37*
G36*
X+360301Y+70741D02*
X+360301Y+299339D01*
X+639699Y+299339D01*
X+639699Y+70741D01*
X+360301Y+70741D01*
G37*
%LPD*%
G36*
X+6477000Y+3159622D02*
X+6477000Y+1759459D01*
X+6230899Y+1759459D01*
X+6230899Y+1861059D01*
X+5926101Y+1861059D01*
X+5926101Y+1454661D01*
X+6230899Y+1454661D01*
X+6230899Y+1556261D01*
X+6477000Y+1556261D01*
X+6477000Y+1397000D01*
X+2000000Y+1400000D01*
X+2000000Y+2286001D01*
X+3924301Y+2286001D01*
X+3924301Y+2133599D01*
X+3513917Y+2133599D01*
X+3388270Y+2007952D01*
X+3365499Y+2030723D01*
X+3365499Y+2171699D01*
X+2898141Y+2171699D01*
X+2898141Y+2030723D01*
X+2895601Y+2028183D01*
X+2895601Y+1981199D01*
X+2832101Y+1981199D01*
X+2832101Y+1629581D01*
X+2819399Y+1642283D01*
X+2819399Y+1981199D01*
X+2514601Y+1981199D01*
X+2514601Y+1947081D01*
X+2489199Y+1972483D01*
X+2489199Y+2184399D01*
X+2082801Y+2184399D01*
X+2082801Y+1879601D01*
X+2294717Y+1879601D01*
X+2514601Y+1659717D01*
X+2514601Y+1574801D01*
X+2599516Y+1574801D01*
X+2624917Y+1549401D01*
X+2751917Y+1422401D01*
X+3166083Y+1422401D01*
X+3318483Y+1574801D01*
X+3454399Y+1574801D01*
X+3454399Y+1786717D01*
X+3503601Y+1835919D01*
X+3503601Y+1574801D01*
X+3808399Y+1574801D01*
X+3808399Y+1930401D01*
X+4148917Y+1930401D01*
X+4402917Y+1676401D01*
X+4741082Y+1676401D01*
X+4932219Y+1867538D01*
X+4932219Y+1888251D01*
X+5699299Y+1888251D01*
X+5699299Y+2190509D01*
X+5464931Y+2190509D01*
X+5699219Y+2424797D01*
X+5699219Y+2428251D01*
X+5699299Y+2428251D01*
X+5699299Y+2477781D01*
X+5926101Y+2477781D01*
X+5926101Y+2470661D01*
X+6230899Y+2470661D01*
X+6230899Y+2877059D01*
X+5926999Y+2877059D01*
X+5926999Y+3289301D01*
X+5968999Y+3289301D01*
X+5968999Y+3535701D01*
X+6100921Y+3535701D01*
X+6477000Y+3159622D01*
G37*
G36*
X+5926101Y+2680979D02*
X+5699299Y+2680979D01*
X+5699299Y+2730509D01*
X+5451851Y+2730509D01*
X+5581643Y+2860301D01*
X+5926101Y+2860301D01*
X+5926101Y+2680979D01*
G37*
G36*
X+5095309Y+2190509D02*
X+4596941Y+2190509D01*
X+4596941Y+1888251D01*
X+4665568Y+1888251D01*
X+4656916Y+1879599D01*
X+4487083Y+1879599D01*
X+4330699Y+2035983D01*
X+4330699Y+2073181D01*
X+4530819Y+2073181D01*
X+4530819Y+2311941D01*
X+4973877Y+2311941D01*
X+5095309Y+2190509D01*
G37*
D18*
X+9000000Y-386640D02*
X+9144640Y-242000D01*
D19*
X+500000Y-250000D02*
X+1000000Y-250000D01*
D70*
X+500000Y+185040D02*
X+500000Y-250000D01*
D71*
X+4830620Y+2039380D02*
X+4957620Y+2039380D01*
X+5338620Y+2039380D02*
X+5338620Y+2207880D01*
X+5597620Y+2466880D01*
X+5597620Y+2574380D01*
X+5592620Y+2579380D01*
D70*
X+4127500Y+2163000D02*
X+4164680Y+2200180D01*
D71*
X+4391120Y+2413540D02*
X+4391120Y+2387600D01*
X+1893848Y+2387600D01*
X+1893848Y+2413540D01*
X+4391120Y+2413540D02*
X+5015960Y+2413540D01*
X+5211620Y+2217880D01*
X+5211620Y+2039380D01*
X+5592620Y+2579380D02*
X+5984020Y+2579380D01*
X+6078500Y+2673860D01*
D20*
X+5084620Y+2579380D02*
X+5084620Y+2884980D01*
X+5628640Y+3429000D01*
X+4957620Y+2579380D02*
X+4957620Y+2789380D01*
X+4953000Y+2794000D01*
X+4953000Y+3043380D01*
X+4957620Y+3048000D01*
X+4739640Y+2794000D02*
X+4739640Y+3048000D01*
X+4739640Y+3261360D02*
X+4957620Y+3261360D01*
X+4830620Y+2579380D02*
X+4830620Y+2703020D01*
X+4739640Y+2794000D01*
D21*
X+2667000Y+2794000D02*
X+2540000Y+2794000D01*
X+4127500Y+2413000D02*
X+4390580Y+2413000D01*
X+4391120Y+2413540D01*
D70*
X+4391120Y+2200180D02*
X+4183500Y+2200180D01*
X+4127500Y+2163000D01*
X+4183500Y+2200180D02*
X+4164680Y+2200180D01*
D71*
X+3302000Y+1778000D02*
X+3556000Y+2032000D01*
X+4191000Y+2032000D01*
X+4445000Y+1778000D01*
X+4698999Y+1778000D01*
X+4830620Y+1909621D01*
X+4830620Y+2039380D01*
D21*
X+2984500Y+1778000D02*
X+2984500Y+1991360D01*
X+3025140Y+2032000D01*
X+3238500Y+2032000D02*
X+3302000Y+1968500D01*
X+3302000Y+1778000D01*
D71*
X+2984500Y+2794000D02*
X+3302000Y+2794000D01*
X+2667000Y+1778000D02*
X+2667000Y+1651000D01*
D22*
X+7928000Y-825500D02*
X+7928000Y-373000D01*
X+7805000Y-250000D01*
X+7928000Y-127000D01*
D18*
X+8128000Y-825500D02*
X+8374500Y-825500D01*
X+9000000Y-600000D02*
X+9219950Y-819950D01*
X+9219950Y-825500D01*
D70*
X+1893848Y+2413540D02*
X+3130308Y+3650000D01*
X+6148264Y+3650000D01*
X+6949132Y+2849132D01*
D71*
X+6078500Y+1657860D02*
X+6657860Y+1657860D01*
X+7000000Y+2000000D01*
D70*
X+6949132Y+2849132D02*
X+6949132Y+2236500D01*
X+6856316Y+2143684D01*
D71*
X+7500000Y+1500000D02*
X+7920395Y+1079605D01*
D18*
X+8312500Y+187500D02*
X+8742000Y-242000D01*
X+9144640Y-242000D01*
D71*
X+7100000Y+3000000D02*
X+7450000Y+3000000D01*
X+7600000Y+2850000D01*
X+7600000Y+2600000D01*
X+7500000Y+2500000D01*
X+7900000Y+2100000D02*
X+8199999Y+2100000D01*
X+8275000Y+2025000D02*
X+8350000Y+1949999D01*
X+8350000Y+790789D01*
X+8279606Y+720395D01*
X+7356316Y+2643684D02*
X+7356316Y+2240212D01*
X+7647396Y+1949132D01*
X+7349132Y+1650868D02*
X+7647396Y+1949132D01*
X+7749131Y+1949132D01*
D18*
X+7250000Y+350000D02*
X+7550000Y+350000D01*
X+8100000Y+900000D01*
D20*
X+5338620Y+2579380D02*
X+5296620Y+2579380D01*
X+5296620Y+2709980D01*
X+5586640Y+3000000D01*
X+5211620Y+2579380D02*
X+5169620Y+2579380D01*
X+5169620Y+2782980D01*
X+5586640Y+3200000D01*
D70*
X+1400000Y+16000D02*
X+1400000Y-250000D01*
D18*
X+1314960Y-250000D02*
X+1400000Y-250000D01*
X+546000Y-758000D02*
X+2758000Y-758000D01*
X+4000000Y-2000000D01*
D70*
X+600000Y-1400000D02*
X+1000000Y-1400000D01*
X+1400000Y-1000000D01*
X+346000Y-1400000D02*
X+346000Y-958000D01*
D21*
X+546000Y-758000D01*
D70*
X+346000Y-958000D02*
X+346000Y-912000D01*
X+500000Y-758000D01*
X+9500000Y-750000D02*
X+9800000Y-450000D01*
X+9800000Y+995000D01*
X+6985000Y+3810000D01*
X+4445000Y+3810000D01*
X+9346000Y-1400000D02*
X+9346000Y-904000D01*
X+9424500Y-825500D01*
D21*
X+9500000Y-750000D01*
D18*
X+9219950Y-825500D02*
X+9424500Y-825500D01*
D70*
X+9600000Y-1400000D02*
X+9993015Y-1006985D01*
X+9993015Y+111100D01*
X+10016000Y+200000D01*
X+9000000Y+200000D02*
X+8312500Y+200000D01*
D21*
X+8284194Y+200000D01*
X+8271694Y+187500D01*
D18*
X+8279606Y+720395D02*
X+8312500Y+687501D01*
X+8312500Y+200000D01*
X+8312500Y+187500D01*
X+8271694Y+187500D02*
X+8312500Y+187500D01*
X+4000000Y+1000000D02*
X+4800000Y+200000D01*
X+7100000Y+200000D01*
X+7250000Y+350000D01*
X+6300000Y-2000000D02*
X+6300000Y-1700000D01*
X+5900000Y-1300000D01*
X+4500000Y-1300000D01*
X+4000000Y-1800000D01*
X+4000000Y-2000000D01*
D71*
X+3656000Y+2794000D02*
X+4445000Y+2794000D01*
D18*
X+9144640Y-242000D02*
X+9347600Y-242000D01*
X+9500000Y-242000D01*
X+5600000Y-250000D02*
X+7246000Y-250000D01*
D70*
X+1893848Y+2413540D02*
X+127000Y+646692D01*
X+127000Y-385000D01*
X+500000Y-758000D01*
D71*
X+2540000Y+2794000D02*
X+3175000Y+3429000D01*
X+5628640Y+3429000D01*
X+2540000Y+2794000D02*
X+2286000Y+2540000D01*
D70*
X+500000Y+500000D02*
X+500000Y+690500D01*
X+2009680Y+2200180D01*
X+4164680Y+2200180D01*
D71*
X+3302000Y+2794000D02*
X+3556000Y+3048000D01*
X+4739640Y+3048000D01*
X+2667000Y+1651000D02*
X+2286000Y+2032000D01*
D18*
X+7250000Y-1400000D02*
X+7800000Y-1400000D01*
X+8374500Y-825500D01*
X+8826500Y-825500D01*
X+8128000Y-127000D02*
X+8826500Y-825500D01*
X+9219950Y-825500D01*
D71*
X+7349132Y+1650868D02*
X+7143684Y+1856315D01*
X+7100000Y+3000000D02*
X+7125000Y+2975000D01*
X+7125000Y+2125000D01*
X+7000000Y+2000000D01*
X+8199999Y+2100000D02*
X+8275000Y+2025000D01*
X+7643684Y+2356316D02*
X+7943683Y+2356316D01*
X+8200000Y+2100000D01*
X+8199999Y+2100000D01*
D18*
X+5600000Y-250000D02*
X+1400000Y-250000D01*
D71*
X+4445000Y+2794000D02*
X+4445000Y+2667000D01*
X+4528000Y+2584000D01*
X+4699000Y+2584000D01*
X+4703620Y+2579380D01*
D18*
X+6650000Y-2000000D02*
X+6650000Y-1300000D01*
X+5600000Y-250000D01*
X+7246000Y-250000D02*
X+7350000Y-250000D01*
X+7787500Y+187500D01*
X+8271694Y+187500D01*
X+7350000Y-250000D02*
X+7805000Y-250000D01*
D71*
X+2667000Y+1651000D02*
X+2794000Y+1524000D01*
X+3124000Y+1524000D01*
X+3302000Y+1702000D01*
X+3302000Y+1778000D01*
D21*
X+9757520Y+4465102D02*
X+9713824Y+4402466D01*
X+9710550Y+4393613D01*
X+9683591Y+4320704D01*
X+9675909Y+4250000D01*
X+9676773Y+4242043D01*
X+9683591Y+4179296D01*
X+9713824Y+4097534D01*
X+9719227Y+4089788D01*
X+9757520Y+4034898D01*
X+9810649Y+3986974D01*
X+9870586Y+3952896D01*
X+9877997Y+3950548D01*
X+9934592Y+3932623D01*
X+9942139Y+3931854D01*
X+10000000Y+3925961D01*
X+10065408Y+3932623D01*
X+10129414Y+3952896D01*
X+10136169Y+3956736D01*
X+10189351Y+3986974D01*
X+10195310Y+3992349D01*
X+10242480Y+4034898D01*
X+10286176Y+4097534D01*
X+10287750Y+4101791D01*
X+10299025Y-1882281D01*
X+10286176Y-1847534D01*
X+10280773Y-1839788D01*
X+10242480Y-1784898D01*
X+10189351Y-1736974D01*
X+10129414Y-1702896D01*
X+10122003Y-1700548D01*
X+10065408Y-1682623D01*
X+10057861Y-1681854D01*
X+10000000Y-1675961D01*
X+9934592Y-1682623D01*
X+9870586Y-1702896D01*
X+9863831Y-1706736D01*
X+9810649Y-1736974D01*
X+9804690Y-1742349D01*
X+9757520Y-1784898D01*
X+9713824Y-1847534D01*
X+9710550Y-1856387D01*
X+9683591Y-1929296D01*
X+9675909Y-2000000D01*
X+9676773Y-2007957D01*
X+9683591Y-2070704D01*
X+9713824Y-2152466D01*
X+9719227Y-2160212D01*
X+9757520Y-2215102D01*
X+9810649Y-2263026D01*
X+9870586Y-2297104D01*
X+9877997Y-2299452D01*
X+9934592Y-2317377D01*
X+9942139Y-2318146D01*
X+10000000Y-2324039D01*
X+10065408Y-2317377D01*
X+10129414Y-2297104D01*
X+10136169Y-2293264D01*
X+10189351Y-2263026D01*
X+10195310Y-2257651D01*
X+10242480Y-2215102D01*
X+10286176Y-2152466D01*
X+10289450Y-2143613D01*
X+10299466Y-2116526D01*
X+10300000Y-2400000D01*
X-300000Y-2400000D01*
X-298134Y-2120127D01*
X-286176Y-2152466D01*
X-280773Y-2160212D01*
X-242480Y-2215102D01*
X-189351Y-2263026D01*
X-129414Y-2297104D01*
X-122003Y-2299452D01*
X-65408Y-2317377D01*
X-57861Y-2318146D01*
X+0Y-2324039D01*
X+65408Y-2317377D01*
X+129414Y-2297104D01*
X+136169Y-2293264D01*
X+189351Y-2263026D01*
X+195310Y-2257651D01*
X+242480Y-2215102D01*
X+286176Y-2152466D01*
X+289450Y-2143613D01*
X+316409Y-2070704D01*
X+323659Y-2030511D01*
X+323659Y-1969489D01*
X+316409Y-1929296D01*
X+286176Y-1847534D01*
X+280773Y-1839788D01*
X+242480Y-1784898D01*
X+189351Y-1736974D01*
X+129414Y-1702896D01*
X+122003Y-1700548D01*
X+65408Y-1682623D01*
X+57861Y-1681854D01*
X+0Y-1675961D01*
X-65408Y-1682623D01*
X-129414Y-1702896D01*
X-136169Y-1706736D01*
X-189351Y-1736974D01*
X-195310Y-1742349D01*
X-242480Y-1784898D01*
X-286176Y-1847534D01*
X-289450Y-1856387D01*
X-296503Y-1875462D01*
X-256962Y+4055657D01*
X-242480Y+4034898D01*
X-189351Y+3986974D01*
X-129414Y+3952896D01*
X-122003Y+3950548D01*
X-65408Y+3932623D01*
X-57861Y+3931854D01*
X+0Y+3925961D01*
X+65408Y+3932623D01*
X+129414Y+3952896D01*
X+136169Y+3956736D01*
X+189351Y+3986974D01*
X+195310Y+3992349D01*
X+242480Y+4034898D01*
X+286176Y+4097534D01*
X+289450Y+4106387D01*
X+316409Y+4179296D01*
X+323659Y+4219489D01*
X+323659Y+4280511D01*
X+316409Y+4320704D01*
X+286176Y+4402466D01*
X+280773Y+4410212D01*
X+242480Y+4465102D01*
X+203792Y+4500000D01*
X+9796208Y+4500000D01*
X+9757520Y+4465102D01*
X+4635499Y+3911599D02*
X+7027083Y+3911599D01*
X+9901599Y+1037083D01*
X+9901599Y+390499D01*
X+10155699Y+390499D01*
X+10155699Y+9501D01*
X+10094614Y+9501D01*
X+10094614Y-1049068D01*
X+9765099Y-1378583D01*
X+9765099Y-1565099D01*
X+9180901Y-1565099D01*
X+9180901Y-1234901D01*
X+9244401Y-1234901D01*
X+9244401Y-965199D01*
X+8432365Y-965199D01*
X+7857865Y-1539699D01*
X+7469510Y-1539699D01*
X+7355210Y-1653999D01*
X+7144790Y-1653999D01*
X+6996001Y-1505210D01*
X+6996001Y-1294790D01*
X+7144790Y-1146001D01*
X+7355210Y-1146001D01*
X+7469510Y-1260301D01*
X+7742135Y-1260301D01*
X+7986437Y-1015999D01*
X+7788301Y-1015999D01*
X+7788301Y-635001D01*
X+7801001Y-635001D01*
X+7801001Y-425603D01*
X+7765097Y-389699D01*
X+5937263Y-389699D01*
X+6789699Y-1242135D01*
X+6789699Y-2190499D01*
X+6510301Y-2190499D01*
X+6510301Y-1357865D01*
X+5542135Y-389699D01*
X+1200661Y-389699D01*
X+1200661Y-333265D01*
X+1175261Y-307865D01*
X+1175261Y-192135D01*
X+1200661Y-166735D01*
X+1200661Y-110301D01*
X+1209501Y-110301D01*
X+1209501Y+155699D01*
X+1590499Y+155699D01*
X+1590499Y-110301D01*
X+7292135Y-110301D01*
X+7729635Y+327199D01*
X+8172801Y+327199D01*
X+8172801Y+593715D01*
X+8082040Y+684476D01*
X+7607865Y+210301D01*
X+7469510Y+210301D01*
X+7355210Y+96001D01*
X+7193565Y+96001D01*
X+7157865Y+60301D01*
X+4742135Y+60301D01*
X+3967535Y+834901D01*
X+3834901Y+834901D01*
X+3834901Y+1165099D01*
X+4165099Y+1165099D01*
X+4165099Y+1032465D01*
X+4857865Y+339699D01*
X+6996001Y+339699D01*
X+6996001Y+455210D01*
X+7144790Y+603999D01*
X+7355210Y+603999D01*
X+7469510Y+489699D01*
X+7492135Y+489699D01*
X+7884476Y+882040D01*
X+7866515Y+900000D01*
X+7686910Y+1079605D01*
X+7740792Y+1133486D01*
X+7517960Y+1356318D01*
X+7491020Y+1329377D01*
X+7178509Y+1641888D01*
X+7205450Y+1668828D01*
X+7170362Y+1703916D01*
X+7080558Y+1703916D01*
X+6991285Y+1793189D01*
X+6991285Y+1847601D01*
X+6973323Y+1847601D01*
X+6694683Y+1568961D01*
X+6565900Y+1568961D01*
X+6565900Y+1308040D01*
X+1911100Y+1311160D01*
X+1911100Y+1957918D01*
X+601599Y+648417D01*
X+601599Y+614299D01*
X+639699Y+614299D01*
X+639699Y+385701D01*
X+360301Y+385701D01*
X+360301Y+614299D01*
X+398401Y+614299D01*
X+398401Y+732583D01*
X+1911100Y+2245282D01*
X+1911100Y+2287110D01*
X+228599Y+604609D01*
X+228599Y-342917D01*
X+427783Y-542101D01*
X+589428Y-542101D01*
X+665628Y-618301D01*
X+2815865Y-618301D01*
X+3900000Y-1702436D01*
X+4442135Y-1160301D01*
X+5957865Y-1160301D01*
X+6439699Y-1642135D01*
X+6439699Y-2190499D01*
X+6160301Y-2190499D01*
X+6160301Y-1757865D01*
X+5842135Y-1439699D01*
X+5614353Y-1439699D01*
X+5643939Y-1447469D01*
X+5712198Y-1478878D01*
X+5775133Y-1522779D01*
X+5830663Y-1578976D01*
X+5876742Y-1647761D01*
X+5879578Y-1654723D01*
X+5879579Y-1654722D01*
X+5911417Y-1732867D01*
X+5927212Y-1819489D01*
X+5927212Y-1880511D01*
X+5911417Y-1967133D01*
X+5876742Y-2052239D01*
X+5872561Y-2058481D01*
X+5830663Y-2121024D01*
X+5822197Y-2129592D01*
X+5775133Y-2177221D01*
X+5769614Y-2181071D01*
X+5712198Y-2221122D01*
X+5697845Y-2227726D01*
X+5643939Y-2252531D01*
X+5637710Y-2254167D01*
X+5572518Y-2271288D01*
X+5500000Y-2277479D01*
X+5490165Y-2276639D01*
X+5427482Y-2271288D01*
X+5356061Y-2252531D01*
X+5287802Y-2221122D01*
X+5224867Y-2177221D01*
X+5169337Y-2121024D01*
X+5123258Y-2052239D01*
X+5120422Y-2045277D01*
X+5120421Y-2045278D01*
X+5088583Y-1967133D01*
X+5072060Y-1850000D01*
X+5073511Y-1839712D01*
X+5088583Y-1732867D01*
X+5123258Y-1647761D01*
X+5127439Y-1641519D01*
X+5169337Y-1578976D01*
X+5177803Y-1570408D01*
X+5224867Y-1522779D01*
X+5230386Y-1518929D01*
X+5287802Y-1478878D01*
X+5302155Y-1472274D01*
X+5356061Y-1447469D01*
X+5385647Y-1439699D01*
X+4557865Y-1439699D01*
X+4162663Y-1834901D01*
X+4165099Y-1834901D01*
X+4165099Y-2165099D01*
X+3834901Y-2165099D01*
X+3834901Y-2032465D01*
X+2700135Y-897699D01*
X+1590499Y-897699D01*
X+1590499Y-1139699D01*
X+1403983Y-1139699D01*
X+1042083Y-1501599D01*
X+765099Y-1501599D01*
X+765099Y-1565099D01*
X+180901Y-1565099D01*
X+180901Y-1234901D01*
X+244401Y-1234901D01*
X+244401Y-869917D01*
X+284101Y-830217D01*
X+284101Y-685783D01*
X+25401Y-427083D01*
X+25401Y+688775D01*
X+1911100Y+2574474D01*
X+1911100Y+2737271D01*
X+2963622Y+3771900D01*
X+4254501Y+3771900D01*
X+4254501Y+3949699D01*
X+4635499Y+3949699D01*
X+4635499Y+3911599D01*
X+2509835Y+1276639D02*
X+2572518Y+1271288D01*
X+2643939Y+1252531D01*
X+2712198Y+1221122D01*
X+2775133Y+1177221D01*
X+2830663Y+1121024D01*
X+2876742Y+1052239D01*
X+2879578Y+1045277D01*
X+2879579Y+1045278D01*
X+2911417Y+967133D01*
X+2927212Y+880511D01*
X+2927212Y+819489D01*
X+2911417Y+732867D01*
X+2876742Y+647761D01*
X+2872561Y+641519D01*
X+2830663Y+578976D01*
X+2822197Y+570408D01*
X+2775133Y+522779D01*
X+2769614Y+518929D01*
X+2712198Y+478878D01*
X+2697845Y+472274D01*
X+2643939Y+447469D01*
X+2637710Y+445833D01*
X+2572518Y+428712D01*
X+2500000Y+422521D01*
X+2490165Y+423361D01*
X+2427482Y+428712D01*
X+2356061Y+447469D01*
X+2287802Y+478878D01*
X+2224867Y+522779D01*
X+2169337Y+578976D01*
X+2123258Y+647761D01*
X+2120422Y+654723D01*
X+2120421Y+654722D01*
X+2088583Y+732867D01*
X+2072060Y+850000D01*
X+2073511Y+860288D01*
X+2088583Y+967133D01*
X+2123258Y+1052239D01*
X+2127439Y+1058481D01*
X+2169337Y+1121024D01*
X+2177803Y+1129592D01*
X+2224867Y+1177221D01*
X+2230386Y+1181071D01*
X+2287802Y+1221122D01*
X+2302155Y+1227726D01*
X+2356061Y+1252531D01*
X+2362290Y+1254167D01*
X+2427482Y+1271288D01*
X+2500000Y+1277479D01*
X+2509835Y+1276639D01*
X+2509835Y-1423361D02*
X+2572518Y-1428712D01*
X+2643939Y-1447469D01*
X+2712198Y-1478878D01*
X+2775133Y-1522779D01*
X+2830663Y-1578976D01*
X+2876742Y-1647761D01*
X+2879578Y-1654723D01*
X+2879579Y-1654722D01*
X+2911417Y-1732867D01*
X+2927212Y-1819489D01*
X+2927212Y-1880511D01*
X+2911417Y-1967133D01*
X+2876742Y-2052239D01*
X+2872561Y-2058481D01*
X+2830663Y-2121024D01*
X+2822197Y-2129592D01*
X+2775133Y-2177221D01*
X+2769614Y-2181071D01*
X+2712198Y-2221122D01*
X+2697845Y-2227726D01*
X+2643939Y-2252531D01*
X+2637710Y-2254167D01*
X+2572518Y-2271288D01*
X+2500000Y-2277479D01*
X+2490165Y-2276639D01*
X+2427482Y-2271288D01*
X+2356061Y-2252531D01*
X+2287802Y-2221122D01*
X+2224867Y-2177221D01*
X+2169337Y-2121024D01*
X+2123258Y-2052239D01*
X+2120422Y-2045277D01*
X+2120421Y-2045278D01*
X+2088583Y-1967133D01*
X+2072060Y-1850000D01*
X+2073511Y-1839712D01*
X+2088583Y-1732867D01*
X+2123258Y-1647761D01*
X+2127439Y-1641519D01*
X+2169337Y-1578976D01*
X+2177803Y-1570408D01*
X+2224867Y-1522779D01*
X+2230386Y-1518929D01*
X+2287802Y-1478878D01*
X+2302155Y-1472274D01*
X+2356061Y-1447469D01*
X+2362290Y-1445833D01*
X+2427482Y-1428712D01*
X+2500000Y-1422521D01*
X+2509835Y-1423361D01*
X+5509835Y+1276639D02*
X+5572518Y+1271288D01*
X+5643939Y+1252531D01*
X+5712198Y+1221122D01*
X+5775133Y+1177221D01*
X+5830663Y+1121024D01*
X+5876742Y+1052239D01*
X+5879578Y+1045277D01*
X+5879579Y+1045278D01*
X+5911417Y+967133D01*
X+5927212Y+880511D01*
X+5927212Y+819489D01*
X+5911417Y+732867D01*
X+5876742Y+647761D01*
X+5872561Y+641519D01*
X+5830663Y+578976D01*
X+5822197Y+570408D01*
X+5775133Y+522779D01*
X+5769614Y+518929D01*
X+5712198Y+478878D01*
X+5697845Y+472274D01*
X+5643939Y+447469D01*
X+5637710Y+445833D01*
X+5572518Y+428712D01*
X+5500000Y+422521D01*
X+5490165Y+423361D01*
X+5427482Y+428712D01*
X+5356061Y+447469D01*
X+5287802Y+478878D01*
X+5224867Y+522779D01*
X+5169337Y+578976D01*
X+5123258Y+647761D01*
X+5120422Y+654723D01*
X+5120421Y+654722D01*
X+5088583Y+732867D01*
X+5072060Y+850000D01*
X+5073511Y+860288D01*
X+5088583Y+967133D01*
X+5123258Y+1052239D01*
X+5127439Y+1058481D01*
X+5169337Y+1121024D01*
X+5177803Y+1129592D01*
X+5224867Y+1177221D01*
X+5230386Y+1181071D01*
X+5287802Y+1221122D01*
X+5302155Y+1227726D01*
X+5356061Y+1252531D01*
X+5362290Y+1254167D01*
X+5427482Y+1271288D01*
X+5500000Y+1277479D01*
X+5509835Y+1276639D01*
X+1863500Y+3136500D02*
X+36500Y+3136500D01*
X+36500Y+3763500D01*
X+1863500Y+3763500D01*
X+1863500Y+3136500D01*
X+589428Y-465899D02*
X+410572Y-465899D01*
X+284101Y-339428D01*
X+284101Y-160572D01*
X+410572Y-34101D01*
X+589428Y-34101D01*
X+715899Y-160572D01*
X+715899Y-339428D01*
X+589428Y-465899D01*
X+1114299Y-389699D02*
X+885701Y-389699D01*
X+885701Y-110301D01*
X+1114299Y-110301D01*
X+1114299Y-389699D01*
X+360301Y+70741D02*
X+360301Y+299339D01*
X+639699Y+299339D01*
X+639699Y+70741D01*
X+360301Y+70741D01*
X+500000Y-465899D02*
X+500000Y-250000D01*
X+500000Y-34101D02*
X+500000Y-250000D01*
X+715899Y-250000D02*
X+500000Y-250000D01*
X+284101Y-250000D02*
X+500000Y-250000D01*
X+1114299Y-250000D02*
X+1000000Y-250000D01*
X+885701Y-250000D02*
X+1000000Y-250000D01*
X+1000000Y-110301D02*
X+1000000Y-250000D01*
X+1000000Y-389699D02*
X+1000000Y-250000D01*
X+500000Y+70741D02*
X+500000Y+185040D01*
X+500000Y+299339D02*
X+500000Y+185040D01*
X+639699Y+185040D02*
X+500000Y+185040D01*
X+360301Y+185040D02*
X+500000Y+185040D01*
D71*
X+6477000Y+3159622D02*
X+6477000Y+1759459D01*
X+6230899Y+1759459D01*
X+6230899Y+1861059D01*
X+5926101Y+1861059D01*
X+5926101Y+1454661D01*
X+6230899Y+1454661D01*
X+6230899Y+1556261D01*
X+6477000Y+1556261D01*
X+6477000Y+1397000D01*
X+2000000Y+1400000D01*
X+2000000Y+2286001D01*
X+3924301Y+2286001D01*
X+3924301Y+2133599D01*
X+3513917Y+2133599D01*
X+3388270Y+2007952D01*
X+3365499Y+2030723D01*
X+3365499Y+2171699D01*
X+2898141Y+2171699D01*
X+2898141Y+2030723D01*
X+2895601Y+2028183D01*
X+2895601Y+1981199D01*
X+2832101Y+1981199D01*
X+2832101Y+1629581D01*
X+2819399Y+1642283D01*
X+2819399Y+1981199D01*
X+2514601Y+1981199D01*
X+2514601Y+1947081D01*
X+2489199Y+1972483D01*
X+2489199Y+2184399D01*
X+2082801Y+2184399D01*
X+2082801Y+1879601D01*
X+2294717Y+1879601D01*
X+2514601Y+1659717D01*
X+2514601Y+1574801D01*
X+2599516Y+1574801D01*
X+2624917Y+1549401D01*
X+2751917Y+1422401D01*
X+3166083Y+1422401D01*
X+3318483Y+1574801D01*
X+3454399Y+1574801D01*
X+3454399Y+1786717D01*
X+3503601Y+1835919D01*
X+3503601Y+1574801D01*
X+3808399Y+1574801D01*
X+3808399Y+1930401D01*
X+4148917Y+1930401D01*
X+4402917Y+1676401D01*
X+4741082Y+1676401D01*
X+4932219Y+1867538D01*
X+4932219Y+1888251D01*
X+5699299Y+1888251D01*
X+5699299Y+2190509D01*
X+5464931Y+2190509D01*
X+5699219Y+2424797D01*
X+5699219Y+2428251D01*
X+5699299Y+2428251D01*
X+5699299Y+2477781D01*
X+5926101Y+2477781D01*
X+5926101Y+2470661D01*
X+6230899Y+2470661D01*
X+6230899Y+2877059D01*
X+5926999Y+2877059D01*
X+5926999Y+3289301D01*
X+5968999Y+3289301D01*
X+5968999Y+3535701D01*
X+6100921Y+3535701D01*
X+6477000Y+3159622D01*
X+5926101Y+2680979D02*
X+5699299Y+2680979D01*
X+5699299Y+2730509D01*
X+5451851Y+2730509D01*
X+5581643Y+2860301D01*
X+5926101Y+2860301D01*
X+5926101Y+2680979D01*
X+5095309Y+2190509D02*
X+4596941Y+2190509D01*
X+4596941Y+1888251D01*
X+4665568Y+1888251D01*
X+4656916Y+1879599D01*
X+4487083Y+1879599D01*
X+4330699Y+2035983D01*
X+4330699Y+2073181D01*
X+4530819Y+2073181D01*
X+4530819Y+2311941D01*
X+4973877Y+2311941D01*
X+5095309Y+2190509D01*
X+5465620Y+2730509D02*
X+5465620Y+2579380D01*
X+5699299Y+2039380D02*
X+5592620Y+2039380D01*
X+5592620Y+2190509D02*
X+5592620Y+2039380D01*
X+5592620Y+1888251D02*
X+5592620Y+2039380D01*
X+5465620Y+2190509D02*
X+5465620Y+2039380D01*
X+5465620Y+1888251D02*
X+5465620Y+2039380D01*
X+5084620Y+2190509D02*
X+5084620Y+2039380D01*
X+5084620Y+1888251D02*
X+5084620Y+2039380D01*
X+4596941Y+2039380D02*
X+4703620Y+2039380D01*
X+4703620Y+2190509D02*
X+4703620Y+2039380D01*
X+4391120Y+2073181D02*
X+4391120Y+2200180D01*
X+4530819Y+2200180D02*
X+4391120Y+2200180D01*
X+3924301Y+2163000D02*
X+4127500Y+2163000D01*
X+5968999Y+3429000D02*
X+5842000Y+3429000D01*
X+5926999Y+3200000D02*
X+5800000Y+3200000D01*
X+5926999Y+3000000D02*
X+5800000Y+3000000D01*
X+5800000Y+2860301D02*
X+5800000Y+3000000D01*
X+3503601Y+1778000D02*
X+3656000Y+1778000D01*
X+3808399Y+1778000D02*
X+3656000Y+1778000D01*
X+3656000Y+1574801D02*
X+3656000Y+1778000D01*
D10*
X+500000Y-758000D03*
X+500000Y-250000D03*
D11*
X+4000000Y-2000000D03*
X+4000000Y+1000000D03*
D12*
X+7920395Y+1079605D03*
X+8100000Y+900000D03*
X+8279606Y+720395D03*
D13*
X+7250000Y+350000D03*
X+7250000Y-1400000D03*
D14*
X+8128000Y-127000D03*
X+7928000Y-127000D03*
X+8128000Y-825500D03*
X+7928000Y-825500D03*
D10*
X+9500000Y-750000D03*
X+9500000Y-242000D03*
D23*
X+9000000Y-600000D03*
X+9000000Y-386640D03*
D24*
X+1000000Y-250000D03*
X+1314960Y-250000D03*
D25*
X+500000Y+185040D03*
X+500000Y+500000D03*
D26*
X+4703620Y+2579380D03*
X+4830620Y+2579380D03*
X+4957620Y+2579380D03*
X+5084620Y+2579380D03*
X+5211620Y+2579380D03*
X+5338620Y+2579380D03*
X+5465620Y+2579380D03*
X+5592620Y+2579380D03*
X+5592620Y+2039380D03*
X+5465620Y+2039380D03*
X+5338620Y+2039380D03*
X+5211620Y+2039380D03*
X+5084620Y+2039380D03*
X+4957620Y+2039380D03*
X+4830620Y+2039380D03*
X+4703620Y+2039380D03*
D23*
X+4391120Y+2413540D03*
X+4391120Y+2200180D03*
D27*
X+7349132Y+1650868D03*
X+7500000Y+1500000D03*
D28*
X+7749131Y+1949132D03*
X+7900000Y+2100000D03*
D15*
X+7643684Y+2356316D03*
X+7500000Y+2500000D03*
X+7356316Y+2643684D03*
X+6856316Y+2143684D03*
X+7000000Y+2000000D03*
X+7143684Y+1856315D03*
D14*
X+6078500Y+2673860D03*
X+6078500Y+1657860D03*
D28*
X+7100000Y+3000000D03*
X+6949132Y+2849132D03*
D16*
X+4127500Y+2413000D03*
X+4127500Y+2163000D03*
X+4445000Y+3810000D03*
X+4445000Y+2794000D03*
D29*
X+5628640Y+3429000D03*
X+5842000Y+3429000D03*
X+5586640Y+3200000D03*
X+5800000Y+3200000D03*
X+5586640Y+3000000D03*
X+5800000Y+3000000D03*
D14*
X+2667000Y+1778000D03*
X+2667000Y+2794000D03*
D16*
X+2286000Y+2032000D03*
X+2286000Y+2540000D03*
D14*
X+3656000Y+2794000D03*
X+3656000Y+1778000D03*
D23*
X+4739640Y+3261360D03*
X+4739640Y+3048000D03*
X+4957620Y+3048000D03*
X+4957620Y+3261360D03*
D29*
X+4953000Y+2794000D03*
X+4739640Y+2794000D03*
D14*
X+3302000Y+2794000D03*
X+3302000Y+1778000D03*
D29*
X+3025140Y+2032000D03*
X+3238500Y+2032000D03*
D14*
X+2984500Y+2794000D03*
X+2984500Y+1778000D03*
X+6300000Y-2000000D03*
X+6650000Y-2000000D03*
D11*
X+346000Y-1400000D03*
X+600000Y-1400000D03*
D16*
X+1400000Y-1000000D03*
X+1400000Y+16000D03*
D11*
X+9346000Y-1400000D03*
X+9600000Y-1400000D03*
D14*
X+10016000Y+200000D03*
X+9000000Y+200000D03*
D17*
X-400000Y-2500000D02*
X+10400000Y-2500000D01*
X+10400000Y+4600000D01*
X-400000Y+4600000D01*
X-400000Y-2500000D01*
X+250000Y-2000000D02*
X+249185Y-1979829D01*
X+242566Y-1939486D01*
X+228753Y-1899143D01*
X+206307Y-1858800D01*
X+172010Y-1818582D01*
X+131667Y-1787482D01*
X+91324Y-1767277D01*
X+50981Y-1755253D01*
X+10638Y-1750226D01*
X+0Y-1750000D01*
X-250000Y-2000000D02*
X-249185Y-1979829D01*
X-242566Y-1939486D01*
X-228753Y-1899143D01*
X-206307Y-1858800D01*
X-172010Y-1818582D01*
X-131667Y-1787482D01*
X-91324Y-1767277D01*
X-50981Y-1755253D01*
X-10638Y-1750226D01*
X+0Y-1750000D01*
X-250000Y-2000000D02*
X-249185Y-2020171D01*
X-242566Y-2060514D01*
X-228753Y-2100857D01*
X-206307Y-2141200D01*
X-172010Y-2181418D01*
X-131667Y-2212518D01*
X-91324Y-2232723D01*
X-50981Y-2244747D01*
X-10638Y-2249774D01*
X+0Y-2250000D01*
X+250000Y-2000000D02*
X+249185Y-2020171D01*
X+242566Y-2060514D01*
X+228753Y-2100857D01*
X+206307Y-2141200D01*
X+172010Y-2181418D01*
X+131667Y-2212518D01*
X+91324Y-2232723D01*
X+50981Y-2244747D01*
X+10638Y-2249774D01*
X+0Y-2250000D01*
X+10250000Y-2000000D02*
X+10249185Y-1979829D01*
X+10242566Y-1939486D01*
X+10228753Y-1899143D01*
X+10206307Y-1858800D01*
X+10172010Y-1818582D01*
X+10131667Y-1787482D01*
X+10091324Y-1767277D01*
X+10050981Y-1755253D01*
X+10010638Y-1750226D01*
X+10000000Y-1750000D01*
X+9750000Y-2000000D02*
X+9750815Y-1979829D01*
X+9757434Y-1939486D01*
X+9771247Y-1899143D01*
X+9793693Y-1858800D01*
X+9827990Y-1818582D01*
X+9868333Y-1787482D01*
X+9908676Y-1767277D01*
X+9949019Y-1755253D01*
X+9989362Y-1750226D01*
X+10000000Y-1750000D01*
X+9750000Y-2000000D02*
X+9750815Y-2020171D01*
X+9757434Y-2060514D01*
X+9771247Y-2100857D01*
X+9793693Y-2141200D01*
X+9827990Y-2181418D01*
X+9868333Y-2212518D01*
X+9908676Y-2232723D01*
X+9949019Y-2244747D01*
X+9989362Y-2249774D01*
X+10000000Y-2250000D01*
X+10250000Y-2000000D02*
X+10249185Y-2020171D01*
X+10242566Y-2060514D01*
X+10228753Y-2100857D01*
X+10206307Y-2141200D01*
X+10172010Y-2181418D01*
X+10131667Y-2212518D01*
X+10091324Y-2232723D01*
X+10050981Y-2244747D01*
X+10010638Y-2249774D01*
X+10000000Y-2250000D01*
X+10250000Y+4250000D02*
X+10249185Y+4270171D01*
X+10242566Y+4310514D01*
X+10228753Y+4350857D01*
X+10206307Y+4391200D01*
X+10172010Y+4431418D01*
X+10131667Y+4462518D01*
X+10091324Y+4482723D01*
X+10050981Y+4494747D01*
X+10010638Y+4499774D01*
X+10000000Y+4500000D01*
X+9750000Y+4250000D02*
X+9750815Y+4270171D01*
X+9757434Y+4310514D01*
X+9771247Y+4350857D01*
X+9793693Y+4391200D01*
X+9827990Y+4431418D01*
X+9868333Y+4462518D01*
X+9908676Y+4482723D01*
X+9949019Y+4494747D01*
X+9989362Y+4499774D01*
X+10000000Y+4500000D01*
X+9750000Y+4250000D02*
X+9750815Y+4229829D01*
X+9757434Y+4189486D01*
X+9771247Y+4149143D01*
X+9793693Y+4108800D01*
X+9827990Y+4068582D01*
X+9868333Y+4037482D01*
X+9908676Y+4017277D01*
X+9949019Y+4005253D01*
X+9989362Y+4000226D01*
X+10000000Y+4000000D01*
X+10250000Y+4250000D02*
X+10249185Y+4229829D01*
X+10242566Y+4189486D01*
X+10228753Y+4149143D01*
X+10206307Y+4108800D01*
X+10172010Y+4068582D01*
X+10131667Y+4037482D01*
X+10091324Y+4017277D01*
X+10050981Y+4005253D01*
X+10010638Y+4000226D01*
X+10000000Y+4000000D01*
X+250000Y+4250000D02*
X+249185Y+4270171D01*
X+242566Y+4310514D01*
X+228753Y+4350857D01*
X+206307Y+4391200D01*
X+172010Y+4431418D01*
X+131667Y+4462518D01*
X+91324Y+4482723D01*
X+50981Y+4494747D01*
X+10638Y+4499774D01*
X+0Y+4500000D01*
X-250000Y+4250000D02*
X-249185Y+4270171D01*
X-242566Y+4310514D01*
X-228753Y+4350857D01*
X-206307Y+4391200D01*
X-172010Y+4431418D01*
X-131667Y+4462518D01*
X-91324Y+4482723D01*
X-50981Y+4494747D01*
X-10638Y+4499774D01*
X+0Y+4500000D01*
X-250000Y+4250000D02*
X-249185Y+4229829D01*
X-242566Y+4189486D01*
X-228753Y+4149143D01*
X-206307Y+4108800D01*
X-172010Y+4068582D01*
X-131667Y+4037482D01*
X-91324Y+4017277D01*
X-50981Y+4005253D01*
X-10638Y+4000226D01*
X+0Y+4000000D01*
X+250000Y+4250000D02*
X+249185Y+4229829D01*
X+242566Y+4189486D01*
X+228753Y+4149143D01*
X+206307Y+4108800D01*
X+172010Y+4068582D01*
X+131667Y+4037482D01*
X+91324Y+4017277D01*
X+50981Y+4005253D01*
X+10638Y+4000226D01*
X+0Y+4000000D01*
X+2853553Y+850000D02*
X+2852430Y+878155D01*
X+2843315Y+934467D01*
X+2824316Y+990779D01*
X+2793521Y+1047091D01*
X+2746596Y+1103358D01*
X+2690284Y+1147979D01*
X+2633972Y+1177187D01*
X+2577660Y+1194918D01*
X+2521348Y+1202908D01*
X+2500000Y+1203553D01*
X+2146447Y+850000D02*
X+2147570Y+878155D01*
X+2156685Y+934467D01*
X+2175684Y+990779D01*
X+2206479Y+1047091D01*
X+2253404Y+1103358D01*
X+2309716Y+1147979D01*
X+2366028Y+1177187D01*
X+2422340Y+1194918D01*
X+2478652Y+1202908D01*
X+2500000Y+1203553D01*
X+2146447Y+850000D02*
X+2147570Y+821845D01*
X+2156685Y+765533D01*
X+2175684Y+709221D01*
X+2206479Y+652909D01*
X+2253404Y+596642D01*
X+2309716Y+552021D01*
X+2366028Y+522813D01*
X+2422340Y+505082D01*
X+2478652Y+497092D01*
X+2500000Y+496447D01*
X+2853553Y+850000D02*
X+2852430Y+821845D01*
X+2843315Y+765533D01*
X+2824316Y+709221D01*
X+2793521Y+652909D01*
X+2746596Y+596642D01*
X+2690284Y+552021D01*
X+2633972Y+522813D01*
X+2577660Y+505082D01*
X+2521348Y+497092D01*
X+2500000Y+496447D01*
X+2853553Y-1850000D02*
X+2852430Y-1821845D01*
X+2843315Y-1765533D01*
X+2824316Y-1709221D01*
X+2793521Y-1652909D01*
X+2746596Y-1596642D01*
X+2690284Y-1552021D01*
X+2633972Y-1522813D01*
X+2577660Y-1505082D01*
X+2521348Y-1497092D01*
X+2500000Y-1496447D01*
X+2146447Y-1850000D02*
X+2147570Y-1821845D01*
X+2156685Y-1765533D01*
X+2175684Y-1709221D01*
X+2206479Y-1652909D01*
X+2253404Y-1596642D01*
X+2309716Y-1552021D01*
X+2366028Y-1522813D01*
X+2422340Y-1505082D01*
X+2478652Y-1497092D01*
X+2500000Y-1496447D01*
X+2146447Y-1850000D02*
X+2147570Y-1878155D01*
X+2156685Y-1934467D01*
X+2175684Y-1990779D01*
X+2206479Y-2047091D01*
X+2253404Y-2103358D01*
X+2309716Y-2147979D01*
X+2366028Y-2177187D01*
X+2422340Y-2194918D01*
X+2478652Y-2202908D01*
X+2500000Y-2203553D01*
X+2853553Y-1850000D02*
X+2852430Y-1878155D01*
X+2843315Y-1934467D01*
X+2824316Y-1990779D01*
X+2793521Y-2047091D01*
X+2746596Y-2103358D01*
X+2690284Y-2147979D01*
X+2633972Y-2177187D01*
X+2577660Y-2194918D01*
X+2521348Y-2202908D01*
X+2500000Y-2203553D01*
X+5853553Y+850000D02*
X+5852430Y+878155D01*
X+5843315Y+934467D01*
X+5824316Y+990779D01*
X+5793521Y+1047091D01*
X+5746596Y+1103358D01*
X+5690284Y+1147979D01*
X+5633972Y+1177187D01*
X+5577660Y+1194918D01*
X+5521348Y+1202908D01*
X+5500000Y+1203553D01*
X+5146447Y+850000D02*
X+5147570Y+878155D01*
X+5156685Y+934467D01*
X+5175684Y+990779D01*
X+5206479Y+1047091D01*
X+5253404Y+1103358D01*
X+5309716Y+1147979D01*
X+5366028Y+1177187D01*
X+5422340Y+1194918D01*
X+5478652Y+1202908D01*
X+5500000Y+1203553D01*
X+5146447Y+850000D02*
X+5147570Y+821845D01*
X+5156685Y+765533D01*
X+5175684Y+709221D01*
X+5206479Y+652909D01*
X+5253404Y+596642D01*
X+5309716Y+552021D01*
X+5366028Y+522813D01*
X+5422340Y+505082D01*
X+5478652Y+497092D01*
X+5500000Y+496447D01*
X+5853553Y+850000D02*
X+5852430Y+821845D01*
X+5843315Y+765533D01*
X+5824316Y+709221D01*
X+5793521Y+652909D01*
X+5746596Y+596642D01*
X+5690284Y+552021D01*
X+5633972Y+522813D01*
X+5577660Y+505082D01*
X+5521348Y+497092D01*
X+5500000Y+496447D01*
X+5853553Y-1850000D02*
X+5852430Y-1821845D01*
X+5843315Y-1765533D01*
X+5824316Y-1709221D01*
X+5793521Y-1652909D01*
X+5746596Y-1596642D01*
X+5690284Y-1552021D01*
X+5633972Y-1522813D01*
X+5577660Y-1505082D01*
X+5521348Y-1497092D01*
X+5500000Y-1496447D01*
X+5146447Y-1850000D02*
X+5147570Y-1821845D01*
X+5156685Y-1765533D01*
X+5175684Y-1709221D01*
X+5206479Y-1652909D01*
X+5253404Y-1596642D01*
X+5309716Y-1552021D01*
X+5366028Y-1522813D01*
X+5422340Y-1505082D01*
X+5478652Y-1497092D01*
X+5500000Y-1496447D01*
X+5146447Y-1850000D02*
X+5147570Y-1878155D01*
X+5156685Y-1934467D01*
X+5175684Y-1990779D01*
X+5206479Y-2047091D01*
X+5253404Y-2103358D01*
X+5309716Y-2147979D01*
X+5366028Y-2177187D01*
X+5422340Y-2194918D01*
X+5478652Y-2202908D01*
X+5500000Y-2203553D01*
X+5853553Y-1850000D02*
X+5852430Y-1878155D01*
X+5843315Y-1934467D01*
X+5824316Y-1990779D01*
X+5793521Y-2047091D01*
X+5746596Y-2103358D01*
X+5690284Y-2147979D01*
X+5633972Y-2177187D01*
X+5577660Y-2194918D01*
X+5521348Y-2202908D01*
X+5500000Y-2203553D01*
D72*
X+1700000Y+3598400D02*
X+1700000Y+3344400D01*
X+1649200Y+3293600D01*
X+1446000Y+3293600D01*
X+1395200Y+3344400D01*
X+1395200Y+3598400D01*
X+1293600Y+3293600D02*
X+1293600Y+3598400D01*
X+988800Y+3598400D01*
X+1293600Y+3446000D02*
X+1090400Y+3446000D01*
X+887200Y+3293600D02*
X+887200Y+3598400D01*
X+633200Y+3598400D01*
X+582400Y+3547600D01*
X+582400Y+3496800D01*
X+633200Y+3446000D01*
X+887200Y+3446000D01*
X+480800Y+3293600D02*
X+480800Y+3598400D01*
X+226800Y+3598400D01*
X+176000Y+3547600D01*
X+176000Y+3496800D01*
X+226800Y+3446000D01*
X+480800Y+3446000D01*
X+226800Y+3446000D02*
X+176000Y+3395200D01*
X+176000Y+3293600D01*
M02*
