G04 PROTEUS RS274X GERBER FILE*
%FSLAX45Y45*%
%MOMM*%
G01*
%ADD19C,0.203200*%
%ADD60C,0.085340*%
%ADD61C,0.100580*%
%ADD52C,0.050000*%
%ADD62C,0.351660*%
%ADD63C,0.078740*%
%TD.AperFunction*%
D19*
X+8926340Y-650800D02*
X+9068580Y-650800D01*
X+9068580Y-335840D01*
X+8926340Y-335840D01*
X+8926340Y-650800D01*
D60*
X+9014529Y-476251D02*
X+9023064Y-467716D01*
X+9023064Y-442113D01*
X+9005995Y-425045D01*
X+8988926Y-425045D01*
X+8971857Y-442113D01*
X+8971857Y-467716D01*
X+8980392Y-476251D01*
X+8988926Y-544526D02*
X+8997460Y-535991D01*
X+8997460Y-510388D01*
X+8988926Y-501854D01*
X+8980392Y-501854D01*
X+8971857Y-510388D01*
X+8971857Y-535991D01*
X+8980392Y-544526D01*
X+9014529Y-544526D01*
X+9023064Y-535991D01*
X+9023064Y-510388D01*
D19*
X-400000Y-2500000D02*
X+10400000Y-2500000D01*
X+10400000Y+4600000D01*
X-400000Y+4600000D01*
X-400000Y-2500000D01*
X+949200Y-333820D02*
X+1365760Y-333820D01*
X+1365760Y-166180D01*
X+949200Y-166180D01*
X+949200Y-333820D01*
D61*
X+1278180Y-280176D02*
X+1278180Y-219825D01*
X+1217830Y-280176D01*
X+1217830Y-219825D01*
X+1197713Y-219825D02*
X+1137363Y-219825D01*
X+1167538Y-219825D02*
X+1167538Y-280176D01*
X+1107188Y-229884D02*
X+1097130Y-219825D01*
X+1066955Y-219825D01*
X+1056896Y-229884D01*
X+1056896Y-239942D01*
X+1066955Y-250000D01*
X+1097130Y-250000D01*
X+1107188Y-260059D01*
X+1107188Y-280176D01*
X+1056896Y-280176D01*
D19*
X+416180Y+134240D02*
X+583820Y+134240D01*
X+583820Y+550800D01*
X+416180Y+550800D01*
X+416180Y+134240D01*
D61*
X+469824Y+221820D02*
X+530175Y+221820D01*
X+469824Y+282170D01*
X+530175Y+282170D01*
X+530175Y+302287D02*
X+530175Y+362637D01*
X+530175Y+332462D02*
X+469824Y+332462D01*
X+510058Y+402870D02*
X+530175Y+422987D01*
X+469824Y+422987D01*
D52*
X+5673120Y+2679380D02*
X+5673120Y+1939380D01*
X+4623120Y+1939380D01*
X+4623120Y+2679380D01*
X+5673120Y+2679380D01*
X+5098120Y+2309380D02*
X+5198120Y+2309380D01*
X+5148120Y+2259380D02*
X+5148120Y+2359380D01*
D62*
X+4866788Y+2203881D02*
X+4866788Y+2379714D01*
X+4901954Y+2414880D01*
X+5042620Y+2414880D01*
X+5077787Y+2379714D01*
X+5077787Y+2203881D01*
X+5218453Y+2274214D02*
X+5288786Y+2203881D01*
X+5288786Y+2414880D01*
D19*
X+4322540Y+2149380D02*
X+4464780Y+2149380D01*
X+4464780Y+2464340D01*
X+4322540Y+2464340D01*
X+4322540Y+2149380D01*
D60*
X+4376591Y+2289791D02*
X+4368056Y+2281256D01*
X+4368056Y+2255653D01*
X+4385125Y+2238585D01*
X+4402194Y+2238585D01*
X+4419263Y+2255653D01*
X+4419263Y+2281256D01*
X+4410728Y+2289791D01*
X+4385125Y+2358066D02*
X+4385125Y+2306860D01*
X+4419263Y+2340997D01*
X+4368056Y+2340997D01*
D19*
X+7365296Y+1738875D02*
X+7588007Y+1516164D01*
X+7487428Y+1415585D01*
X+7264718Y+1638296D01*
X+7365296Y+1738875D01*
D63*
X+7476472Y+1493714D02*
X+7509878Y+1527120D01*
X+7482039Y+1554959D01*
X+7470904Y+1554959D01*
X+7465336Y+1549391D01*
X+7465336Y+1538256D01*
X+7493175Y+1510417D01*
X+7465336Y+1538256D02*
X+7454200Y+1538256D01*
X+7443065Y+1527120D01*
X+7443065Y+1571662D02*
X+7443065Y+1593933D01*
X+7409658Y+1560527D01*
X+7409659Y+1616204D02*
X+7409659Y+1627340D01*
X+7392955Y+1644043D01*
X+7381820Y+1644043D01*
X+7376252Y+1638475D01*
X+7376252Y+1627340D01*
X+7392955Y+1610636D01*
X+7392955Y+1599501D01*
X+7381820Y+1588365D01*
X+7353981Y+1616204D01*
D19*
X+7661124Y+1965296D02*
X+7883835Y+2188007D01*
X+7984414Y+2087428D01*
X+7761703Y+1864718D01*
X+7661124Y+1965296D01*
D63*
X+7906285Y+2076472D02*
X+7872879Y+2109878D01*
X+7845040Y+2082039D01*
X+7845040Y+2070904D01*
X+7850608Y+2065336D01*
X+7861743Y+2065336D01*
X+7889582Y+2093175D01*
X+7861743Y+2065336D02*
X+7861743Y+2054200D01*
X+7872879Y+2043065D01*
X+7828337Y+2043065D02*
X+7806066Y+2043065D01*
X+7839472Y+2009658D01*
X+7783795Y+2009659D02*
X+7772659Y+2009659D01*
X+7755956Y+1992955D01*
X+7755956Y+1981820D01*
X+7761524Y+1976252D01*
X+7772659Y+1976252D01*
X+7772659Y+1965116D01*
X+7778227Y+1959549D01*
X+7789363Y+1959549D01*
X+7806066Y+1976252D01*
X+7806066Y+1987388D01*
X+7783795Y+1987388D02*
X+7772659Y+1976252D01*
D19*
X+6861125Y+2865296D02*
X+7083836Y+3088007D01*
X+7184415Y+2987428D01*
X+6961704Y+2764718D01*
X+6861125Y+2865296D01*
D63*
X+6939254Y+2876252D02*
X+6972660Y+2842846D01*
X+7000499Y+2870685D01*
X+7000499Y+2881820D01*
X+6994931Y+2887388D01*
X+6983796Y+2887388D01*
X+6955957Y+2859549D01*
X+6983796Y+2887388D02*
X+6983796Y+2898524D01*
X+6972660Y+2909659D01*
X+7017202Y+2909659D02*
X+7039473Y+2909659D01*
X+7006067Y+2943066D01*
X+7061744Y+2954201D02*
X+7084015Y+2954201D01*
X+7050609Y+2987608D01*
D19*
X+5577840Y+3360420D02*
X+5892800Y+3360420D01*
X+5892800Y+3502660D01*
X+5577840Y+3502660D01*
X+5577840Y+3360420D01*
D60*
X+5803595Y+3405936D02*
X+5803595Y+3457143D01*
X+5760924Y+3457143D01*
X+5752389Y+3448608D01*
X+5752389Y+3440074D01*
X+5760924Y+3431540D01*
X+5803595Y+3431540D01*
X+5760924Y+3431540D02*
X+5752389Y+3423005D01*
X+5752389Y+3405936D01*
X+5718252Y+3431540D02*
X+5726786Y+3440074D01*
X+5726786Y+3448608D01*
X+5718252Y+3457143D01*
X+5692649Y+3457143D01*
X+5684114Y+3448608D01*
X+5684114Y+3440074D01*
X+5692649Y+3431540D01*
X+5718252Y+3431540D01*
X+5726786Y+3423005D01*
X+5726786Y+3414471D01*
X+5718252Y+3405936D01*
X+5692649Y+3405936D01*
X+5684114Y+3414471D01*
X+5684114Y+3423005D01*
X+5692649Y+3431540D01*
D19*
X+5535840Y+3131420D02*
X+5850800Y+3131420D01*
X+5850800Y+3273660D01*
X+5535840Y+3273660D01*
X+5535840Y+3131420D01*
D60*
X+5676251Y+3219609D02*
X+5667716Y+3228144D01*
X+5642113Y+3228144D01*
X+5625045Y+3211075D01*
X+5625045Y+3194006D01*
X+5642113Y+3176937D01*
X+5667716Y+3176937D01*
X+5676251Y+3185472D01*
X+5701854Y+3176937D02*
X+5744526Y+3176937D01*
X+5744526Y+3185472D01*
X+5701854Y+3228144D01*
D19*
X+5535840Y+2931420D02*
X+5850800Y+2931420D01*
X+5850800Y+3073660D01*
X+5535840Y+3073660D01*
X+5535840Y+2931420D01*
D60*
X+5761595Y+2976936D02*
X+5761595Y+3028143D01*
X+5718924Y+3028143D01*
X+5710389Y+3019608D01*
X+5710389Y+3011074D01*
X+5718924Y+3002540D01*
X+5761595Y+3002540D01*
X+5718924Y+3002540D02*
X+5710389Y+2994005D01*
X+5710389Y+2976936D01*
X+5642114Y+3011074D02*
X+5650649Y+3002540D01*
X+5676252Y+3002540D01*
X+5684786Y+3011074D01*
X+5684786Y+3019608D01*
X+5676252Y+3028143D01*
X+5650649Y+3028143D01*
X+5642114Y+3019608D01*
X+5642114Y+2985471D01*
X+5650649Y+2976936D01*
X+5676252Y+2976936D01*
D19*
X+4671060Y+2997200D02*
X+4813300Y+2997200D01*
X+4813300Y+3312160D01*
X+4671060Y+3312160D01*
X+4671060Y+2997200D01*
D60*
X+4759249Y+3171749D02*
X+4767784Y+3180284D01*
X+4767784Y+3205887D01*
X+4750715Y+3222955D01*
X+4733646Y+3222955D01*
X+4716577Y+3205887D01*
X+4716577Y+3180284D01*
X+4725112Y+3171749D01*
X+4716577Y+3103474D02*
X+4716577Y+3146146D01*
X+4733646Y+3146146D01*
X+4733646Y+3112009D01*
X+4742180Y+3103474D01*
X+4759249Y+3103474D01*
X+4767784Y+3112009D01*
X+4767784Y+3137612D01*
X+4759249Y+3146146D01*
D19*
X+4883960Y+2997200D02*
X+5026200Y+2997200D01*
X+5026200Y+3312160D01*
X+4883960Y+3312160D01*
X+4883960Y+2997200D01*
D60*
X+4929476Y+3086405D02*
X+4980683Y+3086405D01*
X+4980683Y+3129076D01*
X+4972148Y+3137611D01*
X+4963614Y+3137611D01*
X+4955080Y+3129076D01*
X+4955080Y+3086405D01*
X+4955080Y+3129076D02*
X+4946545Y+3137611D01*
X+4929476Y+3137611D01*
X+4980683Y+3163214D02*
X+4980683Y+3205886D01*
X+4972148Y+3205886D01*
X+4929476Y+3163214D01*
D19*
X+4688840Y+2720340D02*
X+5003800Y+2720340D01*
X+5003800Y+2862580D01*
X+4688840Y+2862580D01*
X+4688840Y+2720340D01*
D60*
X+4863389Y+2774391D02*
X+4871924Y+2765856D01*
X+4897527Y+2765856D01*
X+4914595Y+2782925D01*
X+4914595Y+2799994D01*
X+4897527Y+2817063D01*
X+4871924Y+2817063D01*
X+4863389Y+2808528D01*
X+4795114Y+2808528D02*
X+4803649Y+2817063D01*
X+4829252Y+2817063D01*
X+4837786Y+2808528D01*
X+4837786Y+2774391D01*
X+4829252Y+2765856D01*
X+4803649Y+2765856D01*
X+4795114Y+2774391D01*
X+4795114Y+2782925D01*
X+4803649Y+2791460D01*
X+4837786Y+2791460D01*
D19*
X+2974340Y+1963420D02*
X+3289300Y+1963420D01*
X+3289300Y+2105660D01*
X+2974340Y+2105660D01*
X+2974340Y+1963420D01*
D60*
X+3148889Y+2017471D02*
X+3157424Y+2008936D01*
X+3183027Y+2008936D01*
X+3200095Y+2026005D01*
X+3200095Y+2043074D01*
X+3183027Y+2060143D01*
X+3157424Y+2060143D01*
X+3148889Y+2051608D01*
X+3123286Y+2051608D02*
X+3114752Y+2060143D01*
X+3089149Y+2060143D01*
X+3080614Y+2051608D01*
X+3080614Y+2043074D01*
X+3089149Y+2034540D01*
X+3114752Y+2034540D01*
X+3123286Y+2026005D01*
X+3123286Y+2008936D01*
X+3080614Y+2008936D01*
D19*
X+250000Y-2000000D02*
X+249185Y-1979829D01*
X+242566Y-1939486D01*
X+228753Y-1899143D01*
X+206307Y-1858800D01*
X+172010Y-1818582D01*
X+131667Y-1787482D01*
X+91324Y-1767277D01*
X+50981Y-1755253D01*
X+10638Y-1750226D01*
X+0Y-1750000D01*
X-250000Y-2000000D02*
X-249185Y-1979829D01*
X-242566Y-1939486D01*
X-228753Y-1899143D01*
X-206307Y-1858800D01*
X-172010Y-1818582D01*
X-131667Y-1787482D01*
X-91324Y-1767277D01*
X-50981Y-1755253D01*
X-10638Y-1750226D01*
X+0Y-1750000D01*
X-250000Y-2000000D02*
X-249185Y-2020171D01*
X-242566Y-2060514D01*
X-228753Y-2100857D01*
X-206307Y-2141200D01*
X-172010Y-2181418D01*
X-131667Y-2212518D01*
X-91324Y-2232723D01*
X-50981Y-2244747D01*
X-10638Y-2249774D01*
X+0Y-2250000D01*
X+250000Y-2000000D02*
X+249185Y-2020171D01*
X+242566Y-2060514D01*
X+228753Y-2100857D01*
X+206307Y-2141200D01*
X+172010Y-2181418D01*
X+131667Y-2212518D01*
X+91324Y-2232723D01*
X+50981Y-2244747D01*
X+10638Y-2249774D01*
X+0Y-2250000D01*
X+10250000Y-2000000D02*
X+10249185Y-1979829D01*
X+10242566Y-1939486D01*
X+10228753Y-1899143D01*
X+10206307Y-1858800D01*
X+10172010Y-1818582D01*
X+10131667Y-1787482D01*
X+10091324Y-1767277D01*
X+10050981Y-1755253D01*
X+10010638Y-1750226D01*
X+10000000Y-1750000D01*
X+9750000Y-2000000D02*
X+9750815Y-1979829D01*
X+9757434Y-1939486D01*
X+9771247Y-1899143D01*
X+9793693Y-1858800D01*
X+9827990Y-1818582D01*
X+9868333Y-1787482D01*
X+9908676Y-1767277D01*
X+9949019Y-1755253D01*
X+9989362Y-1750226D01*
X+10000000Y-1750000D01*
X+9750000Y-2000000D02*
X+9750815Y-2020171D01*
X+9757434Y-2060514D01*
X+9771247Y-2100857D01*
X+9793693Y-2141200D01*
X+9827990Y-2181418D01*
X+9868333Y-2212518D01*
X+9908676Y-2232723D01*
X+9949019Y-2244747D01*
X+9989362Y-2249774D01*
X+10000000Y-2250000D01*
X+10250000Y-2000000D02*
X+10249185Y-2020171D01*
X+10242566Y-2060514D01*
X+10228753Y-2100857D01*
X+10206307Y-2141200D01*
X+10172010Y-2181418D01*
X+10131667Y-2212518D01*
X+10091324Y-2232723D01*
X+10050981Y-2244747D01*
X+10010638Y-2249774D01*
X+10000000Y-2250000D01*
X+10250000Y+4250000D02*
X+10249185Y+4270171D01*
X+10242566Y+4310514D01*
X+10228753Y+4350857D01*
X+10206307Y+4391200D01*
X+10172010Y+4431418D01*
X+10131667Y+4462518D01*
X+10091324Y+4482723D01*
X+10050981Y+4494747D01*
X+10010638Y+4499774D01*
X+10000000Y+4500000D01*
X+9750000Y+4250000D02*
X+9750815Y+4270171D01*
X+9757434Y+4310514D01*
X+9771247Y+4350857D01*
X+9793693Y+4391200D01*
X+9827990Y+4431418D01*
X+9868333Y+4462518D01*
X+9908676Y+4482723D01*
X+9949019Y+4494747D01*
X+9989362Y+4499774D01*
X+10000000Y+4500000D01*
X+9750000Y+4250000D02*
X+9750815Y+4229829D01*
X+9757434Y+4189486D01*
X+9771247Y+4149143D01*
X+9793693Y+4108800D01*
X+9827990Y+4068582D01*
X+9868333Y+4037482D01*
X+9908676Y+4017277D01*
X+9949019Y+4005253D01*
X+9989362Y+4000226D01*
X+10000000Y+4000000D01*
X+10250000Y+4250000D02*
X+10249185Y+4229829D01*
X+10242566Y+4189486D01*
X+10228753Y+4149143D01*
X+10206307Y+4108800D01*
X+10172010Y+4068582D01*
X+10131667Y+4037482D01*
X+10091324Y+4017277D01*
X+10050981Y+4005253D01*
X+10010638Y+4000226D01*
X+10000000Y+4000000D01*
X+250000Y+4250000D02*
X+249185Y+4270171D01*
X+242566Y+4310514D01*
X+228753Y+4350857D01*
X+206307Y+4391200D01*
X+172010Y+4431418D01*
X+131667Y+4462518D01*
X+91324Y+4482723D01*
X+50981Y+4494747D01*
X+10638Y+4499774D01*
X+0Y+4500000D01*
X-250000Y+4250000D02*
X-249185Y+4270171D01*
X-242566Y+4310514D01*
X-228753Y+4350857D01*
X-206307Y+4391200D01*
X-172010Y+4431418D01*
X-131667Y+4462518D01*
X-91324Y+4482723D01*
X-50981Y+4494747D01*
X-10638Y+4499774D01*
X+0Y+4500000D01*
X-250000Y+4250000D02*
X-249185Y+4229829D01*
X-242566Y+4189486D01*
X-228753Y+4149143D01*
X-206307Y+4108800D01*
X-172010Y+4068582D01*
X-131667Y+4037482D01*
X-91324Y+4017277D01*
X-50981Y+4005253D01*
X-10638Y+4000226D01*
X+0Y+4000000D01*
X+250000Y+4250000D02*
X+249185Y+4229829D01*
X+242566Y+4189486D01*
X+228753Y+4149143D01*
X+206307Y+4108800D01*
X+172010Y+4068582D01*
X+131667Y+4037482D01*
X+91324Y+4017277D01*
X+50981Y+4005253D01*
X+10638Y+4000226D01*
X+0Y+4000000D01*
X+2853553Y+850000D02*
X+2852430Y+878155D01*
X+2843315Y+934467D01*
X+2824316Y+990779D01*
X+2793521Y+1047091D01*
X+2746596Y+1103358D01*
X+2690284Y+1147979D01*
X+2633972Y+1177187D01*
X+2577660Y+1194918D01*
X+2521348Y+1202908D01*
X+2500000Y+1203553D01*
X+2146447Y+850000D02*
X+2147570Y+878155D01*
X+2156685Y+934467D01*
X+2175684Y+990779D01*
X+2206479Y+1047091D01*
X+2253404Y+1103358D01*
X+2309716Y+1147979D01*
X+2366028Y+1177187D01*
X+2422340Y+1194918D01*
X+2478652Y+1202908D01*
X+2500000Y+1203553D01*
X+2146447Y+850000D02*
X+2147570Y+821845D01*
X+2156685Y+765533D01*
X+2175684Y+709221D01*
X+2206479Y+652909D01*
X+2253404Y+596642D01*
X+2309716Y+552021D01*
X+2366028Y+522813D01*
X+2422340Y+505082D01*
X+2478652Y+497092D01*
X+2500000Y+496447D01*
X+2853553Y+850000D02*
X+2852430Y+821845D01*
X+2843315Y+765533D01*
X+2824316Y+709221D01*
X+2793521Y+652909D01*
X+2746596Y+596642D01*
X+2690284Y+552021D01*
X+2633972Y+522813D01*
X+2577660Y+505082D01*
X+2521348Y+497092D01*
X+2500000Y+496447D01*
X+2853553Y-1850000D02*
X+2852430Y-1821845D01*
X+2843315Y-1765533D01*
X+2824316Y-1709221D01*
X+2793521Y-1652909D01*
X+2746596Y-1596642D01*
X+2690284Y-1552021D01*
X+2633972Y-1522813D01*
X+2577660Y-1505082D01*
X+2521348Y-1497092D01*
X+2500000Y-1496447D01*
X+2146447Y-1850000D02*
X+2147570Y-1821845D01*
X+2156685Y-1765533D01*
X+2175684Y-1709221D01*
X+2206479Y-1652909D01*
X+2253404Y-1596642D01*
X+2309716Y-1552021D01*
X+2366028Y-1522813D01*
X+2422340Y-1505082D01*
X+2478652Y-1497092D01*
X+2500000Y-1496447D01*
X+2146447Y-1850000D02*
X+2147570Y-1878155D01*
X+2156685Y-1934467D01*
X+2175684Y-1990779D01*
X+2206479Y-2047091D01*
X+2253404Y-2103358D01*
X+2309716Y-2147979D01*
X+2366028Y-2177187D01*
X+2422340Y-2194918D01*
X+2478652Y-2202908D01*
X+2500000Y-2203553D01*
X+2853553Y-1850000D02*
X+2852430Y-1878155D01*
X+2843315Y-1934467D01*
X+2824316Y-1990779D01*
X+2793521Y-2047091D01*
X+2746596Y-2103358D01*
X+2690284Y-2147979D01*
X+2633972Y-2177187D01*
X+2577660Y-2194918D01*
X+2521348Y-2202908D01*
X+2500000Y-2203553D01*
X+5853553Y+850000D02*
X+5852430Y+878155D01*
X+5843315Y+934467D01*
X+5824316Y+990779D01*
X+5793521Y+1047091D01*
X+5746596Y+1103358D01*
X+5690284Y+1147979D01*
X+5633972Y+1177187D01*
X+5577660Y+1194918D01*
X+5521348Y+1202908D01*
X+5500000Y+1203553D01*
X+5146447Y+850000D02*
X+5147570Y+878155D01*
X+5156685Y+934467D01*
X+5175684Y+990779D01*
X+5206479Y+1047091D01*
X+5253404Y+1103358D01*
X+5309716Y+1147979D01*
X+5366028Y+1177187D01*
X+5422340Y+1194918D01*
X+5478652Y+1202908D01*
X+5500000Y+1203553D01*
X+5146447Y+850000D02*
X+5147570Y+821845D01*
X+5156685Y+765533D01*
X+5175684Y+709221D01*
X+5206479Y+652909D01*
X+5253404Y+596642D01*
X+5309716Y+552021D01*
X+5366028Y+522813D01*
X+5422340Y+505082D01*
X+5478652Y+497092D01*
X+5500000Y+496447D01*
X+5853553Y+850000D02*
X+5852430Y+821845D01*
X+5843315Y+765533D01*
X+5824316Y+709221D01*
X+5793521Y+652909D01*
X+5746596Y+596642D01*
X+5690284Y+552021D01*
X+5633972Y+522813D01*
X+5577660Y+505082D01*
X+5521348Y+497092D01*
X+5500000Y+496447D01*
X+5853553Y-1850000D02*
X+5852430Y-1821845D01*
X+5843315Y-1765533D01*
X+5824316Y-1709221D01*
X+5793521Y-1652909D01*
X+5746596Y-1596642D01*
X+5690284Y-1552021D01*
X+5633972Y-1522813D01*
X+5577660Y-1505082D01*
X+5521348Y-1497092D01*
X+5500000Y-1496447D01*
X+5146447Y-1850000D02*
X+5147570Y-1821845D01*
X+5156685Y-1765533D01*
X+5175684Y-1709221D01*
X+5206479Y-1652909D01*
X+5253404Y-1596642D01*
X+5309716Y-1552021D01*
X+5366028Y-1522813D01*
X+5422340Y-1505082D01*
X+5478652Y-1497092D01*
X+5500000Y-1496447D01*
X+5146447Y-1850000D02*
X+5147570Y-1878155D01*
X+5156685Y-1934467D01*
X+5175684Y-1990779D01*
X+5206479Y-2047091D01*
X+5253404Y-2103358D01*
X+5309716Y-2147979D01*
X+5366028Y-2177187D01*
X+5422340Y-2194918D01*
X+5478652Y-2202908D01*
X+5500000Y-2203553D01*
X+5853553Y-1850000D02*
X+5852430Y-1878155D01*
X+5843315Y-1934467D01*
X+5824316Y-1990779D01*
X+5793521Y-2047091D01*
X+5746596Y-2103358D01*
X+5690284Y-2147979D01*
X+5633972Y-2177187D01*
X+5577660Y-2194918D01*
X+5521348Y-2202908D01*
X+5500000Y-2203553D01*
M02*
