M48
METRIC,TZ
T01C0.3810
T02C1.5240
T03C1.0160
T04C1.2700
T05C0.7620
%
T01
X+60735Y+16538
X+60705Y+26782
T02
X+5000Y-7580
X+5000Y-2500
X+95000Y-7500
X+95000Y-2420
T03
X+40000Y-20000
X+40000Y+10000
X+79204Y+10796
X+81000Y+9000
X+82796Y+7204
X+3460Y-14000
X+6000Y-14000
X+93460Y-14000
X+96000Y-14000
T04
X+72500Y+3500
X+72500Y-14000
T05
X+81280Y-1270
X+79280Y-1270
X+81280Y-8255
X+79280Y-8255
X+76437Y+23563
X+75000Y+25000
X+73563Y+26437
X+68563Y+21437
X+70000Y+20000
X+71437Y+18563
X+41275Y+24130
X+41275Y+21630
X+44450Y+38100
X+44450Y+27940
X+26670Y+17780
X+26670Y+27940
X+22860Y+20320
X+22860Y+25400
X+36560Y+27940
X+36560Y+17780
X+33020Y+27940
X+33020Y+17780
X+29845Y+27940
X+29845Y+17780
X+63000Y-20000
X+66500Y-20000
X+14000Y-10000
X+14000Y+160
X+100160Y+2000
X+90000Y+2000
M30
